TITLE ""
FILE "LR_black_phrase_07.mp3" MP3
  TRACK 01 AUDIO
    TITLE "LR_black_phrase_07_0001"
    INDEX 01 00:00:00
  TRACK 02 AUDIO
    TITLE "LR_black_phrase_07_0002"
    INDEX 01 00:00:18
  TRACK 03 AUDIO
    TITLE "LR_black_phrase_07_0003"
    INDEX 01 00:01:45
  TRACK 04 AUDIO
    TITLE "LR_black_phrase_07_0004"
    INDEX 01 00:02:09
  TRACK 05 AUDIO
    TITLE "LR_black_phrase_07_0005"
    INDEX 01 00:04:41
  TRACK 06 AUDIO
    TITLE "LR_black_phrase_07_0006"
    INDEX 01 00:05:39
  TRACK 07 AUDIO
    TITLE "LR_black_phrase_07_0007"
    INDEX 01 00:07:55
  TRACK 08 AUDIO
    TITLE "LR_black_phrase_07_0008"
    INDEX 01 00:08:20
  TRACK 09 AUDIO
    TITLE "LR_black_phrase_07_0009"
    INDEX 01 00:10:42
  TRACK 10 AUDIO
    TITLE "LR_black_phrase_07_0010"
    INDEX 01 00:10:71
  TRACK 11 AUDIO
    TITLE "LR_black_phrase_07_0011"
    INDEX 01 00:13:19
  TRACK 12 AUDIO
    TITLE "LR_black_phrase_07_0012"
    INDEX 01 00:14:24
  TRACK 13 AUDIO
    TITLE "LR_black_phrase_07_0013"
    INDEX 01 00:15:51
  TRACK 14 AUDIO
    TITLE "LR_black_phrase_07_0014"
    INDEX 01 00:16:15
  TRACK 15 AUDIO
    TITLE "LR_black_phrase_07_0015"
    INDEX 01 00:20:01
  TRACK 16 AUDIO
    TITLE "LR_black_phrase_07_0016"
    INDEX 01 00:21:01
  TRACK 17 AUDIO
    TITLE "LR_black_phrase_07_0017"
    INDEX 01 00:23:62
  TRACK 18 AUDIO
    TITLE "LR_black_phrase_07_0018"
    INDEX 01 00:24:30
  TRACK 19 AUDIO
    TITLE "LR_black_phrase_07_0019"
    INDEX 01 00:26:72
  TRACK 20 AUDIO
    TITLE "LR_black_phrase_07_0020"
    INDEX 01 00:27:27
  TRACK 21 AUDIO
    TITLE "LR_black_phrase_07_0021"
    INDEX 01 00:29:71
  TRACK 22 AUDIO
    TITLE "LR_black_phrase_07_0022"
    INDEX 01 00:31:01
  TRACK 23 AUDIO
    TITLE "LR_black_phrase_07_0023"
    INDEX 01 00:32:42
  TRACK 24 AUDIO
    TITLE "LR_black_phrase_07_0024"
    INDEX 01 00:33:08
  TRACK 25 AUDIO
    TITLE "LR_black_phrase_07_0025"
    INDEX 01 00:35:50
  TRACK 26 AUDIO
    TITLE "LR_black_phrase_07_0026"
    INDEX 01 00:36:49
  TRACK 27 AUDIO
    TITLE "LR_black_phrase_07_0027"
    INDEX 01 00:38:25
  TRACK 28 AUDIO
    TITLE "LR_black_phrase_07_0028"
    INDEX 01 00:38:64
  TRACK 29 AUDIO
    TITLE "LR_black_phrase_07_0029"
    INDEX 01 00:41:05
  TRACK 30 AUDIO
    TITLE "LR_black_phrase_07_0030"
    INDEX 01 00:41:35
  TRACK 31 AUDIO
    TITLE "LR_black_phrase_07_0031"
    INDEX 01 00:43:51
  TRACK 32 AUDIO
    TITLE "LR_black_phrase_07_0032"
    INDEX 01 00:44:55
  TRACK 33 AUDIO
    TITLE "LR_black_phrase_07_0033"
    INDEX 01 00:46:08
  TRACK 34 AUDIO
    TITLE "LR_black_phrase_07_0034"
    INDEX 01 00:46:48
  TRACK 35 AUDIO
    TITLE "LR_black_phrase_07_0035"
    INDEX 01 00:50:16
  TRACK 36 AUDIO
    TITLE "LR_black_phrase_07_0036"
    INDEX 01 00:51:16
  TRACK 37 AUDIO
    TITLE "LR_black_phrase_07_0037"
    INDEX 01 00:53:73
  TRACK 38 AUDIO
    TITLE "LR_black_phrase_07_0038"
    INDEX 01 00:54:37
  TRACK 39 AUDIO
    TITLE "LR_black_phrase_07_0039"
    INDEX 01 00:57:22
  TRACK 40 AUDIO
    TITLE "LR_black_phrase_07_0040"
    INDEX 01 00:57:53
  TRACK 41 AUDIO
    TITLE "LR_black_phrase_07_0041"
    INDEX 01 01:00:38
  TRACK 42 AUDIO
    TITLE "LR_black_phrase_07_0042"
    INDEX 01 01:01:41
  TRACK 43 AUDIO
    TITLE "LR_black_phrase_07_0043"
    INDEX 01 01:02:41
  TRACK 44 AUDIO
    TITLE "LR_black_phrase_07_0044"
    INDEX 01 01:03:05
  TRACK 45 AUDIO
    TITLE "LR_black_phrase_07_0045"
    INDEX 01 01:04:18
  TRACK 46 AUDIO
    TITLE "LR_black_phrase_07_0046"
    INDEX 01 01:05:14
  TRACK 47 AUDIO
    TITLE "LR_black_phrase_07_0047"
    INDEX 01 01:07:22
  TRACK 48 AUDIO
    TITLE "LR_black_phrase_07_0048"
    INDEX 01 01:07:64
  TRACK 49 AUDIO
    TITLE "LR_black_phrase_07_0049"
    INDEX 01 01:10:07
  TRACK 50 AUDIO
    TITLE "LR_black_phrase_07_0050"
    INDEX 01 01:10:38
  TRACK 51 AUDIO
    TITLE "LR_black_phrase_07_0051"
    INDEX 01 01:12:57
  TRACK 52 AUDIO
    TITLE "LR_black_phrase_07_0052"
    INDEX 01 01:13:62
  TRACK 53 AUDIO
    TITLE "LR_black_phrase_07_0053"
    INDEX 01 01:15:18
  TRACK 54 AUDIO
    TITLE "LR_black_phrase_07_0054"
    INDEX 01 01:15:57
  TRACK 55 AUDIO
    TITLE "LR_black_phrase_07_0055"
    INDEX 01 01:16:72
  TRACK 56 AUDIO
    TITLE "LR_black_phrase_07_0056"
    INDEX 01 01:17:72
  TRACK 57 AUDIO
    TITLE "LR_black_phrase_07_0057"
    INDEX 01 01:19:51
  TRACK 58 AUDIO
    TITLE "LR_black_phrase_07_0058"
    INDEX 01 01:20:17
  TRACK 59 AUDIO
    TITLE "LR_black_phrase_07_0059"
    INDEX 01 01:22:45
  TRACK 60 AUDIO
    TITLE "LR_black_phrase_07_0060"
    INDEX 01 01:23:06
  TRACK 61 AUDIO
    TITLE "LR_black_phrase_07_0061"
    INDEX 01 01:25:34
  TRACK 62 AUDIO
    TITLE "LR_black_phrase_07_0062"
    INDEX 01 01:26:39
  TRACK 63 AUDIO
    TITLE "LR_black_phrase_07_0063"
    INDEX 01 01:28:01
  TRACK 64 AUDIO
    TITLE "LR_black_phrase_07_0064"
    INDEX 01 01:28:38
  TRACK 65 AUDIO
    TITLE "LR_black_phrase_07_0065"
    INDEX 01 01:31:15
  TRACK 66 AUDIO
    TITLE "LR_black_phrase_07_0066"
    INDEX 01 01:32:14
  TRACK 67 AUDIO
    TITLE "LR_black_phrase_07_0067"
    INDEX 01 01:34:19
  TRACK 68 AUDIO
    TITLE "LR_black_phrase_07_0068"
    INDEX 01 01:34:58
  TRACK 69 AUDIO
    TITLE "LR_black_phrase_07_0069"
    INDEX 01 01:36:65
  TRACK 70 AUDIO
    TITLE "LR_black_phrase_07_0070"
    INDEX 01 01:37:23
  TRACK 71 AUDIO
    TITLE "LR_black_phrase_07_0071"
    INDEX 01 01:39:30
  TRACK 72 AUDIO
    TITLE "LR_black_phrase_07_0072"
    INDEX 01 01:40:39
  TRACK 73 AUDIO
    TITLE "LR_black_phrase_07_0073"
    INDEX 01 01:41:55
  TRACK 74 AUDIO
    TITLE "LR_black_phrase_07_0074"
    INDEX 01 01:42:19
  TRACK 75 AUDIO
    TITLE "LR_black_phrase_07_0075"
    INDEX 01 01:45:09
  TRACK 76 AUDIO
    TITLE "LR_black_phrase_07_0076"
    INDEX 01 01:46:09
  TRACK 77 AUDIO
    TITLE "LR_black_phrase_07_0077"
    INDEX 01 01:48:23
  TRACK 78 AUDIO
    TITLE "LR_black_phrase_07_0078"
    INDEX 01 01:48:64
  TRACK 79 AUDIO
    TITLE "LR_black_phrase_07_0079"
    INDEX 01 01:50:55
  TRACK 80 AUDIO
    TITLE "LR_black_phrase_07_0080"
    INDEX 01 01:51:06
  TRACK 81 AUDIO
    TITLE "LR_black_phrase_07_0081"
    INDEX 01 01:52:72
  TRACK 82 AUDIO
    TITLE "LR_black_phrase_07_0082"
    INDEX 01 01:53:75
  TRACK 83 AUDIO
    TITLE "LR_black_phrase_07_0083"
    INDEX 01 01:55:37
  TRACK 84 AUDIO
    TITLE "LR_black_phrase_07_0084"
    INDEX 01 01:56:03
  TRACK 85 AUDIO
    TITLE "LR_black_phrase_07_0085"
    INDEX 01 01:58:35
  TRACK 86 AUDIO
    TITLE "LR_black_phrase_07_0086"
    INDEX 01 01:59:35
  TRACK 87 AUDIO
    TITLE "LR_black_phrase_07_0087"
    INDEX 01 02:02:49
  TRACK 88 AUDIO
    TITLE "LR_black_phrase_07_0088"
    INDEX 01 02:03:15
  TRACK 89 AUDIO
    TITLE "LR_black_phrase_07_0089"
    INDEX 01 02:06:11
  TRACK 90 AUDIO
    TITLE "LR_black_phrase_07_0090"
    INDEX 01 02:06:39
  TRACK 91 AUDIO
    TITLE "LR_black_phrase_07_0091"
    INDEX 01 02:09:35
  TRACK 92 AUDIO
    TITLE "LR_black_phrase_07_0092"
    INDEX 01 02:10:41
  TRACK 93 AUDIO
    TITLE "LR_black_phrase_07_0093"
    INDEX 01 02:11:67
  TRACK 94 AUDIO
    TITLE "LR_black_phrase_07_0094"
    INDEX 01 02:12:30
  TRACK 95 AUDIO
    TITLE "LR_black_phrase_07_0095"
    INDEX 01 02:15:03
  TRACK 96 AUDIO
    TITLE "LR_black_phrase_07_0096"
    INDEX 01 02:16:02
  TRACK 97 AUDIO
    TITLE "LR_black_phrase_07_0097"
    INDEX 01 02:18:13
  TRACK 98 AUDIO
    TITLE "LR_black_phrase_07_0098"
    INDEX 01 02:18:52
  TRACK 99 AUDIO
    TITLE "LR_black_phrase_07_0099"
    INDEX 01 02:20:62
  TRACK 100 AUDIO
    TITLE "LR_black_phrase_07_0100"
    INDEX 01 02:21:17
  TRACK 101 AUDIO
    TITLE "LR_black_phrase_07_0101"
    INDEX 01 02:23:28
  TRACK 102 AUDIO
    TITLE "LR_black_phrase_07_0102"
    INDEX 01 02:24:27
  TRACK 103 AUDIO
    TITLE "LR_black_phrase_07_0103"
    INDEX 01 02:25:48
  TRACK 104 AUDIO
    TITLE "LR_black_phrase_07_0104"
    INDEX 01 02:26:06
  TRACK 105 AUDIO
    TITLE "LR_black_phrase_07_0105"
    INDEX 01 02:29:40
  TRACK 106 AUDIO
    TITLE "LR_black_phrase_07_0106"
    INDEX 01 02:30:37
  TRACK 107 AUDIO
    TITLE "LR_black_phrase_07_0107"
    INDEX 01 02:33:06
  TRACK 108 AUDIO
    TITLE "LR_black_phrase_07_0108"
    INDEX 01 02:33:40
  TRACK 109 AUDIO
    TITLE "LR_black_phrase_07_0109"
    INDEX 01 02:36:14
  TRACK 110 AUDIO
    TITLE "LR_black_phrase_07_0110"
    INDEX 01 02:36:36
  TRACK 111 AUDIO
    TITLE "LR_black_phrase_07_0111"
    INDEX 01 02:39:15
  TRACK 112 AUDIO
    TITLE "LR_black_phrase_07_0112"
    INDEX 01 02:40:08
  TRACK 113 AUDIO
    TITLE "LR_black_phrase_07_0113"
    INDEX 01 02:41:23
  TRACK 114 AUDIO
    TITLE "LR_black_phrase_07_0114"
    INDEX 01 02:41:57
  TRACK 115 AUDIO
    TITLE "LR_black_phrase_07_0115"
    INDEX 01 02:44:53
  TRACK 116 AUDIO
    TITLE "LR_black_phrase_07_0116"
    INDEX 01 02:45:53
  TRACK 117 AUDIO
    TITLE "LR_black_phrase_07_0117"
    INDEX 01 02:47:48
  TRACK 118 AUDIO
    TITLE "LR_black_phrase_07_0118"
    INDEX 01 02:48:04
  TRACK 119 AUDIO
    TITLE "LR_black_phrase_07_0119"
    INDEX 01 02:50:56
  TRACK 120 AUDIO
    TITLE "LR_black_phrase_07_0120"
    INDEX 01 02:50:73
  TRACK 121 AUDIO
    TITLE "LR_black_phrase_07_0121"
    INDEX 01 02:53:50
  TRACK 122 AUDIO
    TITLE "LR_black_phrase_07_0122"
    INDEX 01 02:54:44
  TRACK 123 AUDIO
    TITLE "LR_black_phrase_07_0123"
    INDEX 01 02:56:05
  TRACK 124 AUDIO
    TITLE "LR_black_phrase_07_0124"
    INDEX 01 02:56:37
  TRACK 125 AUDIO
    TITLE "LR_black_phrase_07_0125"
    INDEX 01 02:59:15
  TRACK 126 AUDIO
    TITLE "LR_black_phrase_07_0126"
    INDEX 01 03:00:15
  TRACK 127 AUDIO
    TITLE "LR_black_phrase_07_0127"
    INDEX 01 03:02:65
  TRACK 128 AUDIO
    TITLE "LR_black_phrase_07_0128"
    INDEX 01 03:03:27
  TRACK 129 AUDIO
    TITLE "LR_black_phrase_07_0129"
    INDEX 01 03:05:61
  TRACK 130 AUDIO
    TITLE "LR_black_phrase_07_0130"
    INDEX 01 03:06:04
  TRACK 131 AUDIO
    TITLE "LR_black_phrase_07_0131"
    INDEX 01 03:08:40
  TRACK 132 AUDIO
    TITLE "LR_black_phrase_07_0132"
    INDEX 01 03:09:33
  TRACK 133 AUDIO
    TITLE "LR_black_phrase_07_0133"
    INDEX 01 03:10:54
  TRACK 134 AUDIO
    TITLE "LR_black_phrase_07_0134"
    INDEX 01 03:11:15
  TRACK 135 AUDIO
    TITLE "LR_black_phrase_07_0135"
    INDEX 01 03:14:25
  TRACK 136 AUDIO
    TITLE "LR_black_phrase_07_0136"
    INDEX 01 03:15:24
  TRACK 137 AUDIO
    TITLE "LR_black_phrase_07_0137"
    INDEX 01 03:17:53
  TRACK 138 AUDIO
    TITLE "LR_black_phrase_07_0138"
    INDEX 01 03:18:11
  TRACK 139 AUDIO
    TITLE "LR_black_phrase_07_0139"
    INDEX 01 03:20:35
  TRACK 140 AUDIO
    TITLE "LR_black_phrase_07_0140"
    INDEX 01 03:20:55
  TRACK 141 AUDIO
    TITLE "LR_black_phrase_07_0141"
    INDEX 01 03:23:02
  TRACK 142 AUDIO
    TITLE "LR_black_phrase_07_0142"
    INDEX 01 03:23:73
  TRACK 143 AUDIO
    TITLE "LR_black_phrase_07_0143"
    INDEX 01 03:25:05
  TRACK 144 AUDIO
    TITLE "LR_black_phrase_07_0144"
    INDEX 01 03:25:38
  TRACK 145 AUDIO
    TITLE "LR_black_phrase_07_0145"
    INDEX 01 03:28:01
  TRACK 146 AUDIO
    TITLE "LR_black_phrase_07_0146"
    INDEX 01 03:29:03
  TRACK 147 AUDIO
    TITLE "LR_black_phrase_07_0147"
    INDEX 01 03:31:31
  TRACK 148 AUDIO
    TITLE "LR_black_phrase_07_0148"
    INDEX 01 03:31:64
  TRACK 149 AUDIO
    TITLE "LR_black_phrase_07_0149"
    INDEX 01 03:33:71
  TRACK 150 AUDIO
    TITLE "LR_black_phrase_07_0150"
    INDEX 01 03:34:14
  TRACK 151 AUDIO
    TITLE "LR_black_phrase_07_0151"
    INDEX 01 03:36:24
  TRACK 152 AUDIO
    TITLE "LR_black_phrase_07_0152"
    INDEX 01 03:37:14
  TRACK 153 AUDIO
    TITLE "LR_black_phrase_07_0153"
    INDEX 01 03:38:39
  TRACK 154 AUDIO
    TITLE "LR_black_phrase_07_0154"
    INDEX 01 03:38:74
  TRACK 155 AUDIO
    TITLE "LR_black_phrase_07_0155"
    INDEX 01 03:40:22
  TRACK 156 AUDIO
    TITLE "LR_black_phrase_07_0156"
    INDEX 01 03:41:20
  TRACK 157 AUDIO
    TITLE "LR_black_phrase_07_0157"
    INDEX 01 03:43:54
  TRACK 158 AUDIO
    TITLE "LR_black_phrase_07_0158"
    INDEX 01 03:44:12
  TRACK 159 AUDIO
    TITLE "LR_black_phrase_07_0159"
    INDEX 01 03:46:13
  TRACK 160 AUDIO
    TITLE "LR_black_phrase_07_0160"
    INDEX 01 03:46:33
  TRACK 161 AUDIO
    TITLE "LR_black_phrase_07_0161"
    INDEX 01 03:48:34
  TRACK 162 AUDIO
    TITLE "LR_black_phrase_07_0162"
    INDEX 01 03:49:27
  TRACK 163 AUDIO
    TITLE "LR_black_phrase_07_0163"
    INDEX 01 03:50:44
  TRACK 164 AUDIO
    TITLE "LR_black_phrase_07_0164"
    INDEX 01 03:51:06
  TRACK 165 AUDIO
    TITLE "LR_black_phrase_07_0165"
    INDEX 01 03:53:72
  TRACK 166 AUDIO
    TITLE "LR_black_phrase_07_0166"
    INDEX 01 03:54:69
  TRACK 167 AUDIO
    TITLE "LR_black_phrase_07_0167"
    INDEX 01 03:58:63
  TRACK 168 AUDIO
    TITLE "LR_black_phrase_07_0168"
    INDEX 01 03:59:28
  TRACK 169 AUDIO
    TITLE "LR_black_phrase_07_0169"
    INDEX 01 04:02:73
  TRACK 170 AUDIO
    TITLE "LR_black_phrase_07_0170"
    INDEX 01 04:03:19
  TRACK 171 AUDIO
    TITLE "LR_black_phrase_07_0171"
    INDEX 01 04:06:71
  TRACK 172 AUDIO
    TITLE "LR_black_phrase_07_0172"
    INDEX 01 04:07:66
  TRACK 173 AUDIO
    TITLE "LR_black_phrase_07_0173"
    INDEX 01 04:09:12
  TRACK 174 AUDIO
    TITLE "LR_black_phrase_07_0174"
    INDEX 01 04:09:47
  TRACK 175 AUDIO
    TITLE "LR_black_phrase_07_0175"
    INDEX 01 04:12:34
  TRACK 176 AUDIO
    TITLE "LR_black_phrase_07_0176"
    INDEX 01 04:13:33
  TRACK 177 AUDIO
    TITLE "LR_black_phrase_07_0177"
    INDEX 01 04:15:15
  TRACK 178 AUDIO
    TITLE "LR_black_phrase_07_0178"
    INDEX 01 04:15:48
  TRACK 179 AUDIO
    TITLE "LR_black_phrase_07_0179"
    INDEX 01 04:17:27
  TRACK 180 AUDIO
    TITLE "LR_black_phrase_07_0180"
    INDEX 01 04:17:53
  TRACK 181 AUDIO
    TITLE "LR_black_phrase_07_0181"
    INDEX 01 04:19:32
  TRACK 182 AUDIO
    TITLE "LR_black_phrase_07_0182"
    INDEX 01 04:20:37
  TRACK 183 AUDIO
    TITLE "LR_black_phrase_07_0183"
    INDEX 01 04:21:74
  TRACK 184 AUDIO
    TITLE "LR_black_phrase_07_0184"
    INDEX 01 04:22:34
  TRACK 185 AUDIO
    TITLE "LR_black_phrase_07_0185"
    INDEX 01 04:23:46
  TRACK 186 AUDIO
    TITLE "LR_black_phrase_07_0186"
    INDEX 01 04:24:47
  TRACK 187 AUDIO
    TITLE "LR_black_phrase_07_0187"
    INDEX 01 04:26:28
  TRACK 188 AUDIO
    TITLE "LR_black_phrase_07_0188"
    INDEX 01 04:26:66
  TRACK 189 AUDIO
    TITLE "LR_black_phrase_07_0189"
    INDEX 01 04:29:15
  TRACK 190 AUDIO
    TITLE "LR_black_phrase_07_0190"
    INDEX 01 04:29:40
  TRACK 191 AUDIO
    TITLE "LR_black_phrase_07_0191"
    INDEX 01 04:31:63
  TRACK 192 AUDIO
    TITLE "LR_black_phrase_07_0192"
    INDEX 01 04:32:60
  TRACK 193 AUDIO
    TITLE "LR_black_phrase_07_0193"
    INDEX 01 04:34:02
  TRACK 194 AUDIO
    TITLE "LR_black_phrase_07_0194"
    INDEX 01 04:34:40
  TRACK 195 AUDIO
    TITLE "LR_black_phrase_07_0195"
    INDEX 01 04:36:38
  TRACK 196 AUDIO
    TITLE "LR_black_phrase_07_0196"
    INDEX 01 04:37:40
  TRACK 197 AUDIO
    TITLE "LR_black_phrase_07_0197"
    INDEX 01 04:39:29
  TRACK 198 AUDIO
    TITLE "LR_black_phrase_07_0198"
    INDEX 01 04:39:64
  TRACK 199 AUDIO
    TITLE "LR_black_phrase_07_0199"
    INDEX 01 04:42:19
  TRACK 200 AUDIO
    TITLE "LR_black_phrase_07_0200"
    INDEX 01 04:42:41
  TRACK 201 AUDIO
    TITLE "LR_black_phrase_07_0201"
    INDEX 01 04:44:71
  TRACK 202 AUDIO
    TITLE "LR_black_phrase_07_0202"
    INDEX 01 04:45:73
  TRACK 203 AUDIO
    TITLE "LR_black_phrase_07_0203"
    INDEX 01 04:47:05
  TRACK 204 AUDIO
    TITLE "LR_black_phrase_07_0204"
    INDEX 01 04:47:44
  TRACK 205 AUDIO
    TITLE "LR_black_phrase_07_0205"
    INDEX 01 04:50:17
  TRACK 206 AUDIO
    TITLE "LR_black_phrase_07_0206"
    INDEX 01 04:51:18
  TRACK 207 AUDIO
    TITLE "LR_black_phrase_07_0207"
    INDEX 01 04:53:35
  TRACK 208 AUDIO
    TITLE "LR_black_phrase_07_0208"
    INDEX 01 04:53:74
  TRACK 209 AUDIO
    TITLE "LR_black_phrase_07_0209"
    INDEX 01 04:55:75
  TRACK 210 AUDIO
    TITLE "LR_black_phrase_07_0210"
    INDEX 01 04:56:27
  TRACK 211 AUDIO
    TITLE "LR_black_phrase_07_0211"
    INDEX 01 04:58:26
  TRACK 212 AUDIO
    TITLE "LR_black_phrase_07_0212"
    INDEX 01 04:59:30
  TRACK 213 AUDIO
    TITLE "LR_black_phrase_07_0213"
    INDEX 01 05:00:55
  TRACK 214 AUDIO
    TITLE "LR_black_phrase_07_0214"
    INDEX 01 05:01:21
  TRACK 215 AUDIO
    TITLE "LR_black_phrase_07_0215"
    INDEX 01 05:04:74
  TRACK 216 AUDIO
    TITLE "LR_black_phrase_07_0216"
    INDEX 01 05:05:71
  TRACK 217 AUDIO
    TITLE "LR_black_phrase_07_0217"
    INDEX 01 05:07:55
  TRACK 218 AUDIO
    TITLE "LR_black_phrase_07_0218"
    INDEX 01 05:08:17
  TRACK 219 AUDIO
    TITLE "LR_black_phrase_07_0219"
    INDEX 01 05:10:24
  TRACK 220 AUDIO
    TITLE "LR_black_phrase_07_0220"
    INDEX 01 05:10:51
  TRACK 221 AUDIO
    TITLE "LR_black_phrase_07_0221"
    INDEX 01 05:12:58
  TRACK 222 AUDIO
    TITLE "LR_black_phrase_07_0222"
    INDEX 01 05:13:63
  TRACK 223 AUDIO
    TITLE "LR_black_phrase_07_0223"
    INDEX 01 05:15:17
  TRACK 224 AUDIO
    TITLE "LR_black_phrase_07_0224"
    INDEX 01 05:15:58
  TRACK 225 AUDIO
    TITLE "LR_black_phrase_07_0225"
    INDEX 01 05:17:12
  TRACK 226 AUDIO
    TITLE "LR_black_phrase_07_0226"
    INDEX 01 05:18:11
  TRACK 227 AUDIO
    TITLE "LR_black_phrase_07_0227"
    INDEX 01 05:20:10
  TRACK 228 AUDIO
    TITLE "LR_black_phrase_07_0228"
    INDEX 01 05:20:49
  TRACK 229 AUDIO
    TITLE "LR_black_phrase_07_0229"
    INDEX 01 05:22:50
  TRACK 230 AUDIO
    TITLE "LR_black_phrase_07_0230"
    INDEX 01 05:23:05
  TRACK 231 AUDIO
    TITLE "LR_black_phrase_07_0231"
    INDEX 01 05:25:06
  TRACK 232 AUDIO
    TITLE "LR_black_phrase_07_0232"
    INDEX 01 05:26:09
  TRACK 233 AUDIO
    TITLE "LR_black_phrase_07_0233"
    INDEX 01 05:27:22
  TRACK 234 AUDIO
    TITLE "LR_black_phrase_07_0234"
    INDEX 01 05:27:61
  TRACK 235 AUDIO
    TITLE "LR_black_phrase_07_0235"
    INDEX 01 05:29:74
  TRACK 236 AUDIO
    TITLE "LR_black_phrase_07_0236"
    INDEX 01 05:30:73
  TRACK 237 AUDIO
    TITLE "LR_black_phrase_07_0237"
    INDEX 01 05:32:43
  TRACK 238 AUDIO
    TITLE "LR_black_phrase_07_0238"
    INDEX 01 05:33:07
  TRACK 239 AUDIO
    TITLE "LR_black_phrase_07_0239"
    INDEX 01 05:34:67
  TRACK 240 AUDIO
    TITLE "LR_black_phrase_07_0240"
    INDEX 01 05:35:26
  TRACK 241 AUDIO
    TITLE "LR_black_phrase_07_0241"
    INDEX 01 05:37:13
  TRACK 242 AUDIO
    TITLE "LR_black_phrase_07_0242"
    INDEX 01 05:38:20
  TRACK 243 AUDIO
    TITLE "LR_black_phrase_07_0243"
    INDEX 01 05:39:29
  TRACK 244 AUDIO
    TITLE "LR_black_phrase_07_0244"
    INDEX 01 05:39:70
  TRACK 245 AUDIO
    TITLE "LR_black_phrase_07_0245"
    INDEX 01 05:41:18
  TRACK 246 AUDIO
    TITLE "LR_black_phrase_07_0246"
    INDEX 01 05:42:18
  TRACK 247 AUDIO
    TITLE "LR_black_phrase_07_0247"
    INDEX 01 05:44:58
  TRACK 248 AUDIO
    TITLE "LR_black_phrase_07_0248"
    INDEX 01 05:45:22
  TRACK 249 AUDIO
    TITLE "LR_black_phrase_07_0249"
    INDEX 01 05:47:70
  TRACK 250 AUDIO
    TITLE "LR_black_phrase_07_0250"
    INDEX 01 05:48:22
  TRACK 251 AUDIO
    TITLE "LR_black_phrase_07_0251"
    INDEX 01 05:50:70
  TRACK 252 AUDIO
    TITLE "LR_black_phrase_07_0252"
    INDEX 01 05:51:72
  TRACK 253 AUDIO
    TITLE "LR_black_phrase_07_0253"
    INDEX 01 05:53:16
  TRACK 254 AUDIO
    TITLE "LR_black_phrase_07_0254"
    INDEX 01 05:53:55
  TRACK 255 AUDIO
    TITLE "LR_black_phrase_07_0255"
    INDEX 01 05:56:18
  TRACK 256 AUDIO
    TITLE "LR_black_phrase_07_0256"
    INDEX 01 05:57:17
  TRACK 257 AUDIO
    TITLE "LR_black_phrase_07_0257"
    INDEX 01 05:59:01
  TRACK 258 AUDIO
    TITLE "LR_black_phrase_07_0258"
    INDEX 01 05:59:40
  TRACK 259 AUDIO
    TITLE "LR_black_phrase_07_0259"
    INDEX 01 06:01:56
  TRACK 260 AUDIO
    TITLE "LR_black_phrase_07_0260"
    INDEX 01 06:02:09
  TRACK 261 AUDIO
    TITLE "LR_black_phrase_07_0261"
    INDEX 01 06:04:25
  TRACK 262 AUDIO
    TITLE "LR_black_phrase_07_0262"
    INDEX 01 06:05:31
  TRACK 263 AUDIO
    TITLE "LR_black_phrase_07_0263"
    INDEX 01 06:06:54
  TRACK 264 AUDIO
    TITLE "LR_black_phrase_07_0264"
    INDEX 01 06:07:18
  TRACK 265 AUDIO
    TITLE "LR_black_phrase_07_0265"
    INDEX 01 06:08:17
  TRACK 266 AUDIO
    TITLE "LR_black_phrase_07_0266"
    INDEX 01 06:09:17
  TRACK 267 AUDIO
    TITLE "LR_black_phrase_07_0267"
    INDEX 01 06:11:66
  TRACK 268 AUDIO
    TITLE "LR_black_phrase_07_0268"
    INDEX 01 06:12:37
  TRACK 269 AUDIO
    TITLE "LR_black_phrase_07_0269"
    INDEX 01 06:15:39
  TRACK 270 AUDIO
    TITLE "LR_black_phrase_07_0270"
    INDEX 01 06:15:64
  TRACK 271 AUDIO
    TITLE "LR_black_phrase_07_0271"
    INDEX 01 06:18:68
  TRACK 272 AUDIO
    TITLE "LR_black_phrase_07_0272"
    INDEX 01 06:19:70
  TRACK 273 AUDIO
    TITLE "LR_black_phrase_07_0273"
    INDEX 01 06:21:18
  TRACK 274 AUDIO
    TITLE "LR_black_phrase_07_0274"
    INDEX 01 06:21:55
  TRACK 275 AUDIO
    TITLE "LR_black_phrase_07_0275"
    INDEX 01 06:24:08
  TRACK 276 AUDIO
    TITLE "LR_black_phrase_07_0276"
    INDEX 01 06:25:08
  TRACK 277 AUDIO
    TITLE "LR_black_phrase_07_0277"
    INDEX 01 06:26:70
  TRACK 278 AUDIO
    TITLE "LR_black_phrase_07_0278"
    INDEX 01 06:27:34
  TRACK 279 AUDIO
    TITLE "LR_black_phrase_07_0279"
    INDEX 01 06:29:15
  TRACK 280 AUDIO
    TITLE "LR_black_phrase_07_0280"
    INDEX 01 06:29:45
  TRACK 281 AUDIO
    TITLE "LR_black_phrase_07_0281"
    INDEX 01 06:31:26
  TRACK 282 AUDIO
    TITLE "LR_black_phrase_07_0282"
    INDEX 01 06:32:31
  TRACK 283 AUDIO
    TITLE "LR_black_phrase_07_0283"
    INDEX 01 06:33:48
  TRACK 284 AUDIO
    TITLE "LR_black_phrase_07_0284"
    INDEX 01 06:34:13
  TRACK 285 AUDIO
    TITLE "LR_black_phrase_07_0285"
    INDEX 01 06:36:43
  TRACK 286 AUDIO
    TITLE "LR_black_phrase_07_0286"
    INDEX 01 06:37:40
  TRACK 287 AUDIO
    TITLE "LR_black_phrase_07_0287"
    INDEX 01 06:40:07
  TRACK 288 AUDIO
    TITLE "LR_black_phrase_07_0288"
    INDEX 01 06:40:48
  TRACK 289 AUDIO
    TITLE "LR_black_phrase_07_0289"
    INDEX 01 06:43:47
  TRACK 290 AUDIO
    TITLE "LR_black_phrase_07_0290"
    INDEX 01 06:44:01
  TRACK 291 AUDIO
    TITLE "LR_black_phrase_07_0291"
    INDEX 01 06:46:75
  TRACK 292 AUDIO
    TITLE "LR_black_phrase_07_0292"
    INDEX 01 06:48:07
  TRACK 293 AUDIO
    TITLE "LR_black_phrase_07_0293"
    INDEX 01 06:49:26
  TRACK 294 AUDIO
    TITLE "LR_black_phrase_07_0294"
    INDEX 01 06:49:67
  TRACK 295 AUDIO
    TITLE "LR_black_phrase_07_0295"
    INDEX 01 06:51:19
  TRACK 296 AUDIO
    TITLE "LR_black_phrase_07_0296"
    INDEX 01 06:52:16
  TRACK 297 AUDIO
    TITLE "LR_black_phrase_07_0297"
    INDEX 01 06:54:43
  TRACK 298 AUDIO
    TITLE "LR_black_phrase_07_0298"
    INDEX 01 06:55:07
  TRACK 299 AUDIO
    TITLE "LR_black_phrase_07_0299"
    INDEX 01 06:57:55
  TRACK 300 AUDIO
    TITLE "LR_black_phrase_07_0300"
    INDEX 01 06:58:17
  TRACK 301 AUDIO
    TITLE "LR_black_phrase_07_0301"
    INDEX 01 07:00:63
  TRACK 302 AUDIO
    TITLE "LR_black_phrase_07_0302"
    INDEX 01 07:01:64
  TRACK 303 AUDIO
    TITLE "LR_black_phrase_07_0303"
    INDEX 01 07:03:03
  TRACK 304 AUDIO
    TITLE "LR_black_phrase_07_0304"
    INDEX 01 07:03:44
  TRACK 305 AUDIO
    TITLE "LR_black_phrase_07_0305"
    INDEX 01 07:06:34
  TRACK 306 AUDIO
    TITLE "LR_black_phrase_07_0306"
    INDEX 01 07:07:36
  TRACK 307 AUDIO
    TITLE "LR_black_phrase_07_0307"
    INDEX 01 07:09:70
  TRACK 308 AUDIO
    TITLE "LR_black_phrase_07_0308"
    INDEX 01 07:10:30
  TRACK 309 AUDIO
    TITLE "LR_black_phrase_07_0309"
    INDEX 01 07:12:64
  TRACK 310 AUDIO
    TITLE "LR_black_phrase_07_0310"
    INDEX 01 07:13:13
  TRACK 311 AUDIO
    TITLE "LR_black_phrase_07_0311"
    INDEX 01 07:15:47
  TRACK 312 AUDIO
    TITLE "LR_black_phrase_07_0312"
    INDEX 01 07:16:44
  TRACK 313 AUDIO
    TITLE "LR_black_phrase_07_0313"
    INDEX 01 07:17:59
  TRACK 314 AUDIO
    TITLE "LR_black_phrase_07_0314"
    INDEX 01 07:18:22
  TRACK 315 AUDIO
    TITLE "LR_black_phrase_07_0315"
    INDEX 01 07:19:52
  TRACK 316 AUDIO
    TITLE "LR_black_phrase_07_0316"
    INDEX 01 07:20:54
  TRACK 317 AUDIO
    TITLE "LR_black_phrase_07_0317"
    INDEX 01 07:22:43
  TRACK 318 AUDIO
    TITLE "LR_black_phrase_07_0318"
    INDEX 01 07:23:01
  TRACK 319 AUDIO
    TITLE "LR_black_phrase_07_0319"
    INDEX 01 07:24:60
  TRACK 320 AUDIO
    TITLE "LR_black_phrase_07_0320"
    INDEX 01 07:25:08
  TRACK 321 AUDIO
    TITLE "LR_black_phrase_07_0321"
    INDEX 01 07:26:60
  TRACK 322 AUDIO
    TITLE "LR_black_phrase_07_0322"
    INDEX 01 07:27:54
  TRACK 323 AUDIO
    TITLE "LR_black_phrase_07_0323"
    INDEX 01 07:29:02
  TRACK 324 AUDIO
    TITLE "LR_black_phrase_07_0324"
    INDEX 01 07:29:39
  TRACK 325 AUDIO
    TITLE "LR_black_phrase_07_0325"
    INDEX 01 07:31:32
  TRACK 326 AUDIO
    TITLE "LR_black_phrase_07_0326"
    INDEX 01 07:32:28
  TRACK 327 AUDIO
    TITLE "LR_black_phrase_07_0327"
    INDEX 01 07:34:70
  TRACK 328 AUDIO
    TITLE "LR_black_phrase_07_0328"
    INDEX 01 07:35:30
  TRACK 329 AUDIO
    TITLE "LR_black_phrase_07_0329"
    INDEX 01 07:37:50
  TRACK 330 AUDIO
    TITLE "LR_black_phrase_07_0330"
    INDEX 01 07:37:70
  TRACK 331 AUDIO
    TITLE "LR_black_phrase_07_0331"
    INDEX 01 07:40:15
  TRACK 332 AUDIO
    TITLE "LR_black_phrase_07_0332"
    INDEX 01 07:41:11
  TRACK 333 AUDIO
    TITLE "LR_black_phrase_07_0333"
    INDEX 01 07:42:32
  TRACK 334 AUDIO
    TITLE "LR_black_phrase_07_0334"
    INDEX 01 07:42:69
  TRACK 335 AUDIO
    TITLE "LR_black_phrase_07_0335"
    INDEX 01 07:44:29
  TRACK 336 AUDIO
    TITLE "LR_black_phrase_07_0336"
    INDEX 01 07:45:26
  TRACK 337 AUDIO
    TITLE "LR_black_phrase_07_0337"
    INDEX 01 07:47:19
  TRACK 338 AUDIO
    TITLE "LR_black_phrase_07_0338"
    INDEX 01 07:47:53
  TRACK 339 AUDIO
    TITLE "LR_black_phrase_07_0339"
    INDEX 01 07:49:65
  TRACK 340 AUDIO
    TITLE "LR_black_phrase_07_0340"
    INDEX 01 07:50:10
  TRACK 341 AUDIO
    TITLE "LR_black_phrase_07_0341"
    INDEX 01 07:52:24
  TRACK 342 AUDIO
    TITLE "LR_black_phrase_07_0342"
    INDEX 01 07:53:18
  TRACK 343 AUDIO
    TITLE "LR_black_phrase_07_0343"
    INDEX 01 07:54:43
  TRACK 344 AUDIO
    TITLE "LR_black_phrase_07_0344"
    INDEX 01 07:55:01
  TRACK 345 AUDIO
    TITLE "LR_black_phrase_07_0345"
    INDEX 01 07:56:30
  TRACK 346 AUDIO
    TITLE "LR_black_phrase_07_0346"
    INDEX 01 07:57:30
  TRACK 347 AUDIO
    TITLE "LR_black_phrase_07_0347"
    INDEX 01 07:59:34
  TRACK 348 AUDIO
    TITLE "LR_black_phrase_07_0348"
    INDEX 01 07:59:70
  TRACK 349 AUDIO
    TITLE "LR_black_phrase_07_0349"
    INDEX 01 08:02:11
  TRACK 350 AUDIO
    TITLE "LR_black_phrase_07_0350"
    INDEX 01 08:02:35
  TRACK 351 AUDIO
    TITLE "LR_black_phrase_07_0351"
    INDEX 01 08:04:51
  TRACK 352 AUDIO
    TITLE "LR_black_phrase_07_0352"
    INDEX 01 08:05:51
  TRACK 353 AUDIO
    TITLE "LR_black_phrase_07_0353"
    INDEX 01 08:07:04
  TRACK 354 AUDIO
    TITLE "LR_black_phrase_07_0354"
    INDEX 01 08:07:44
  TRACK 355 AUDIO
    TITLE "LR_black_phrase_07_0355"
    INDEX 01 08:08:59
  TRACK 356 AUDIO
    TITLE "LR_black_phrase_07_0356"
    INDEX 01 08:09:62
  TRACK 357 AUDIO
    TITLE "LR_black_phrase_07_0357"
    INDEX 01 08:11:34
  TRACK 358 AUDIO
    TITLE "LR_black_phrase_07_0358"
    INDEX 01 08:11:67
  TRACK 359 AUDIO
    TITLE "LR_black_phrase_07_0359"
    INDEX 01 08:14:01
  TRACK 360 AUDIO
    TITLE "LR_black_phrase_07_0360"
    INDEX 01 08:14:24
  TRACK 361 AUDIO
    TITLE "LR_black_phrase_07_0361"
    INDEX 01 08:16:33
  TRACK 362 AUDIO
    TITLE "LR_black_phrase_07_0362"
    INDEX 01 08:17:32
  TRACK 363 AUDIO
    TITLE "LR_black_phrase_07_0363"
    INDEX 01 08:18:55
  TRACK 364 AUDIO
    TITLE "LR_black_phrase_07_0364"
    INDEX 01 08:19:15
  TRACK 365 AUDIO
    TITLE "LR_black_phrase_07_0365"
    INDEX 01 08:20:62
  TRACK 366 AUDIO
    TITLE "LR_black_phrase_07_0366"
    INDEX 01 08:21:61
  TRACK 367 AUDIO
    TITLE "LR_black_phrase_07_0367"
    INDEX 01 08:24:34
  TRACK 368 AUDIO
    TITLE "LR_black_phrase_07_0368"
    INDEX 01 08:24:73
  TRACK 369 AUDIO
    TITLE "LR_black_phrase_07_0369"
    INDEX 01 08:27:33
  TRACK 370 AUDIO
    TITLE "LR_black_phrase_07_0370"
    INDEX 01 08:27:56
  TRACK 371 AUDIO
    TITLE "LR_black_phrase_07_0371"
    INDEX 01 08:30:15
  TRACK 372 AUDIO
    TITLE "LR_black_phrase_07_0372"
    INDEX 01 08:31:09
  TRACK 373 AUDIO
    TITLE "LR_black_phrase_07_0373"
    INDEX 01 08:32:12
  TRACK 374 AUDIO
    TITLE "LR_black_phrase_07_0374"
    INDEX 01 08:32:48
  TRACK 375 AUDIO
    TITLE "LR_black_phrase_07_0375"
    INDEX 01 08:33:59
  TRACK 376 AUDIO
    TITLE "LR_black_phrase_07_0376"
    INDEX 01 08:34:60
  TRACK 377 AUDIO
    TITLE "LR_black_phrase_07_0377"
    INDEX 01 08:37:15
  TRACK 378 AUDIO
    TITLE "LR_black_phrase_07_0378"
    INDEX 01 08:37:55
  TRACK 379 AUDIO
    TITLE "LR_black_phrase_07_0379"
    INDEX 01 08:39:36
  TRACK 380 AUDIO
    TITLE "LR_black_phrase_07_0380"
    INDEX 01 08:39:67
  TRACK 381 AUDIO
    TITLE "LR_black_phrase_07_0381"
    INDEX 01 08:41:50
  TRACK 382 AUDIO
    TITLE "LR_black_phrase_07_0382"
    INDEX 01 08:42:54
  TRACK 383 AUDIO
    TITLE "LR_black_phrase_07_0383"
    INDEX 01 08:44:12
  TRACK 384 AUDIO
    TITLE "LR_black_phrase_07_0384"
    INDEX 01 08:44:51
  TRACK 385 AUDIO
    TITLE "LR_black_phrase_07_0385"
    INDEX 01 08:46:20
  TRACK 386 AUDIO
    TITLE "LR_black_phrase_07_0386"
    INDEX 01 08:47:20
  TRACK 387 AUDIO
    TITLE "LR_black_phrase_07_0387"
    INDEX 01 08:49:17
  TRACK 388 AUDIO
    TITLE "LR_black_phrase_07_0388"
    INDEX 01 08:49:50
  TRACK 389 AUDIO
    TITLE "LR_black_phrase_07_0389"
    INDEX 01 08:51:49
  TRACK 390 AUDIO
    TITLE "LR_black_phrase_07_0390"
    INDEX 01 08:51:70
  TRACK 391 AUDIO
    TITLE "LR_black_phrase_07_0391"
    INDEX 01 08:53:67
  TRACK 392 AUDIO
    TITLE "LR_black_phrase_07_0392"
    INDEX 01 08:54:71
  TRACK 393 AUDIO
    TITLE "LR_black_phrase_07_0393"
    INDEX 01 08:56:19
  TRACK 394 AUDIO
    TITLE "LR_black_phrase_07_0394"
    INDEX 01 08:56:52
  TRACK 395 AUDIO
    TITLE "LR_black_phrase_07_0395"
    INDEX 01 09:00:24
  TRACK 396 AUDIO
    TITLE "LR_black_phrase_07_0396"
    INDEX 01 09:01:24
  TRACK 397 AUDIO
    TITLE "LR_black_phrase_07_0397"
    INDEX 01 09:03:25
  TRACK 398 AUDIO
    TITLE "LR_black_phrase_07_0398"
    INDEX 01 09:03:60
  TRACK 399 AUDIO
    TITLE "LR_black_phrase_07_0399"
    INDEX 01 09:05:65
  TRACK 400 AUDIO
    TITLE "LR_black_phrase_07_0400"
    INDEX 01 09:06:09
  TRACK 401 AUDIO
    TITLE "LR_black_phrase_07_0401"
    INDEX 01 09:08:14
  TRACK 402 AUDIO
    TITLE "LR_black_phrase_07_0402"
    INDEX 01 09:09:15
  TRACK 403 AUDIO
    TITLE "LR_black_phrase_07_0403"
    INDEX 01 09:10:46
  TRACK 404 AUDIO
    TITLE "LR_black_phrase_07_0404"
    INDEX 01 09:11:03
  TRACK 405 AUDIO
    TITLE "LR_black_phrase_07_0405"
    INDEX 01 09:16:43
  TRACK 406 AUDIO
    TITLE "LR_black_phrase_07_0406"
    INDEX 01 09:17:44
  TRACK 407 AUDIO
    TITLE "LR_black_phrase_07_0407"
    INDEX 01 09:19:06
  TRACK 408 AUDIO
    TITLE "LR_black_phrase_07_0408"
    INDEX 01 09:19:35
  TRACK 409 AUDIO
    TITLE "LR_black_phrase_07_0409"
    INDEX 01 09:21:07
  TRACK 410 AUDIO
    TITLE "LR_black_phrase_07_0410"
    INDEX 01 09:21:28
  TRACK 411 AUDIO
    TITLE "LR_black_phrase_07_0411"
    INDEX 01 09:22:75
  TRACK 412 AUDIO
    TITLE "LR_black_phrase_07_0412"
    INDEX 01 09:24:07
  TRACK 413 AUDIO
    TITLE "LR_black_phrase_07_0413"
    INDEX 01 09:25:36
  TRACK 414 AUDIO
    TITLE "LR_black_phrase_07_0414"
    INDEX 01 09:26:02
  TRACK 415 AUDIO
    TITLE "LR_black_phrase_07_0415"
    INDEX 01 09:28:28
  TRACK 416 AUDIO
    TITLE "LR_black_phrase_07_0416"
    INDEX 01 09:29:32
  TRACK 417 AUDIO
    TITLE "LR_black_phrase_07_0417"
    INDEX 01 09:31:39
  TRACK 418 AUDIO
    TITLE "LR_black_phrase_07_0418"
    INDEX 01 09:32:03
  TRACK 419 AUDIO
    TITLE "LR_black_phrase_07_0419"
    INDEX 01 09:34:29
  TRACK 420 AUDIO
    TITLE "LR_black_phrase_07_0420"
    INDEX 01 09:34:60
  TRACK 421 AUDIO
    TITLE "LR_black_phrase_07_0421"
    INDEX 01 09:37:12
  TRACK 422 AUDIO
    TITLE "LR_black_phrase_07_0422"
    INDEX 01 09:38:17
  TRACK 423 AUDIO
    TITLE "LR_black_phrase_07_0423"
    INDEX 01 09:39:36
  TRACK 424 AUDIO
    TITLE "LR_black_phrase_07_0424"
    INDEX 01 09:39:75
  TRACK 425 AUDIO
    TITLE "LR_black_phrase_07_0425"
    INDEX 01 09:41:04
  TRACK 426 AUDIO
    TITLE "LR_black_phrase_07_0426"
    INDEX 01 09:42:01
  TRACK 427 AUDIO
    TITLE "LR_black_phrase_07_0427"
    INDEX 01 09:44:41
  TRACK 428 AUDIO
    TITLE "LR_black_phrase_07_0428"
    INDEX 01 09:45:05
  TRACK 429 AUDIO
    TITLE "LR_black_phrase_07_0429"
    INDEX 01 09:47:22
  TRACK 430 AUDIO
    TITLE "LR_black_phrase_07_0430"
    INDEX 01 09:47:51
  TRACK 431 AUDIO
    TITLE "LR_black_phrase_07_0431"
    INDEX 01 09:49:70
  TRACK 432 AUDIO
    TITLE "LR_black_phrase_07_0432"
    INDEX 01 09:50:75
  TRACK 433 AUDIO
    TITLE "LR_black_phrase_07_0433"
    INDEX 01 09:52:11
  TRACK 434 AUDIO
    TITLE "LR_black_phrase_07_0434"
    INDEX 01 09:52:50
  TRACK 435 AUDIO
    TITLE "LR_black_phrase_07_0435"
    INDEX 01 09:53:69
  TRACK 436 AUDIO
    TITLE "LR_black_phrase_07_0436"
    INDEX 01 09:54:69
  TRACK 437 AUDIO
    TITLE "LR_black_phrase_07_0437"
    INDEX 01 09:57:48
  TRACK 438 AUDIO
    TITLE "LR_black_phrase_07_0438"
    INDEX 01 09:58:12
  TRACK 439 AUDIO
    TITLE "LR_black_phrase_07_0439"
    INDEX 01 10:00:05
  TRACK 440 AUDIO
    TITLE "LR_black_phrase_07_0440"
    INDEX 01 10:00:34
  TRACK 441 AUDIO
    TITLE "LR_black_phrase_07_0441"
    INDEX 01 10:02:29
  TRACK 442 AUDIO
    TITLE "LR_black_phrase_07_0442"
    INDEX 01 10:03:33
  TRACK 443 AUDIO
    TITLE "LR_black_phrase_07_0443"
    INDEX 01 10:04:65
  TRACK 444 AUDIO
    TITLE "LR_black_phrase_07_0444"
    INDEX 01 10:05:30
  TRACK 445 AUDIO
    TITLE "LR_black_phrase_07_0445"
    INDEX 01 10:07:07
  TRACK 446 AUDIO
    TITLE "LR_black_phrase_07_0446"
    INDEX 01 10:08:06
  TRACK 447 AUDIO
    TITLE "LR_black_phrase_07_0447"
    INDEX 01 10:11:26
  TRACK 448 AUDIO
    TITLE "LR_black_phrase_07_0448"
    INDEX 01 10:11:64
  TRACK 449 AUDIO
    TITLE "LR_black_phrase_07_0449"
    INDEX 01 10:14:32
  TRACK 450 AUDIO
    TITLE "LR_black_phrase_07_0450"
    INDEX 01 10:14:62
  TRACK 451 AUDIO
    TITLE "LR_black_phrase_07_0451"
    INDEX 01 10:17:29
  TRACK 452 AUDIO
    TITLE "LR_black_phrase_07_0452"
    INDEX 01 10:18:34
  TRACK 453 AUDIO
    TITLE "LR_black_phrase_07_0453"
    INDEX 01 10:19:51
  TRACK 454 AUDIO
    TITLE "LR_black_phrase_07_0454"
    INDEX 01 10:20:13
  TRACK 455 AUDIO
    TITLE "LR_black_phrase_07_0455"
    INDEX 01 10:23:12
  TRACK 456 AUDIO
    TITLE "LR_black_phrase_07_0456"
    INDEX 01 10:24:09
  TRACK 457 AUDIO
    TITLE "LR_black_phrase_07_0457"
    INDEX 01 10:26:57
  TRACK 458 AUDIO
    TITLE "LR_black_phrase_07_0458"
    INDEX 01 10:27:19
  TRACK 459 AUDIO
    TITLE "LR_black_phrase_07_0459"
    INDEX 01 10:29:32
  TRACK 460 AUDIO
    TITLE "LR_black_phrase_07_0460"
    INDEX 01 10:29:61
  TRACK 461 AUDIO
    TITLE "LR_black_phrase_07_0461"
    INDEX 01 10:32:01
  TRACK 462 AUDIO
    TITLE "LR_black_phrase_07_0462"
    INDEX 01 10:33:04
  TRACK 463 AUDIO
    TITLE "LR_black_phrase_07_0463"
    INDEX 01 10:34:43
  TRACK 464 AUDIO
    TITLE "LR_black_phrase_07_0464"
    INDEX 01 10:35:07
  TRACK 465 AUDIO
    TITLE "LR_black_phrase_07_0465"
    INDEX 01 10:36:30
  TRACK 466 AUDIO
    TITLE "LR_black_phrase_07_0466"
    INDEX 01 10:37:28
  TRACK 467 AUDIO
    TITLE "LR_black_phrase_07_0467"
    INDEX 01 10:39:52
  TRACK 468 AUDIO
    TITLE "LR_black_phrase_07_0468"
    INDEX 01 10:40:14
  TRACK 469 AUDIO
    TITLE "LR_black_phrase_07_0469"
    INDEX 01 10:42:41
  TRACK 470 AUDIO
    TITLE "LR_black_phrase_07_0470"
    INDEX 01 10:42:70
  TRACK 471 AUDIO
    TITLE "LR_black_phrase_07_0471"
    INDEX 01 10:45:21
  TRACK 472 AUDIO
    TITLE "LR_black_phrase_07_0472"
    INDEX 01 10:46:25
  TRACK 473 AUDIO
    TITLE "LR_black_phrase_07_0473"
    INDEX 01 10:47:48
  TRACK 474 AUDIO
    TITLE "LR_black_phrase_07_0474"
    INDEX 01 10:48:12
  TRACK 475 AUDIO
    TITLE "LR_black_phrase_07_0475"
    INDEX 01 10:50:48
  TRACK 476 AUDIO
    TITLE "LR_black_phrase_07_0476"
    INDEX 01 10:51:49
  TRACK 477 AUDIO
    TITLE "LR_black_phrase_07_0477"
    INDEX 01 10:53:38
  TRACK 478 AUDIO
    TITLE "LR_black_phrase_07_0478"
    INDEX 01 10:54:03
  TRACK 479 AUDIO
    TITLE "LR_black_phrase_07_0479"
    INDEX 01 10:56:01
  TRACK 480 AUDIO
    TITLE "LR_black_phrase_07_0480"
    INDEX 01 10:56:33
  TRACK 481 AUDIO
    TITLE "LR_black_phrase_07_0481"
    INDEX 01 10:58:32
  TRACK 482 AUDIO
    TITLE "LR_black_phrase_07_0482"
    INDEX 01 10:59:37
  TRACK 483 AUDIO
    TITLE "LR_black_phrase_07_0483"
    INDEX 01 11:01:05
  TRACK 484 AUDIO
    TITLE "LR_black_phrase_07_0484"
    INDEX 01 11:01:44
  TRACK 485 AUDIO
    TITLE "LR_black_phrase_07_0485"
    INDEX 01 11:02:69
  TRACK 486 AUDIO
    TITLE "LR_black_phrase_07_0486"
    INDEX 01 11:03:66
  TRACK 487 AUDIO
    TITLE "LR_black_phrase_07_0487"
    INDEX 01 11:06:10
  TRACK 488 AUDIO
    TITLE "LR_black_phrase_07_0488"
    INDEX 01 11:06:53
  TRACK 489 AUDIO
    TITLE "LR_black_phrase_07_0489"
    INDEX 01 11:09:02
  TRACK 490 AUDIO
    TITLE "LR_black_phrase_07_0490"
    INDEX 01 11:09:34
  TRACK 491 AUDIO
    TITLE "LR_black_phrase_07_0491"
    INDEX 01 11:11:60
  TRACK 492 AUDIO
    TITLE "LR_black_phrase_07_0492"
    INDEX 01 11:12:65
  TRACK 493 AUDIO
    TITLE "LR_black_phrase_07_0493"
    INDEX 01 11:14:07
  TRACK 494 AUDIO
    TITLE "LR_black_phrase_07_0494"
    INDEX 01 11:14:48
  TRACK 495 AUDIO
    TITLE "LR_black_phrase_07_0495"
    INDEX 01 11:17:25
  TRACK 496 AUDIO
    TITLE "LR_black_phrase_07_0496"
    INDEX 01 11:18:21
  TRACK 497 AUDIO
    TITLE "LR_black_phrase_07_0497"
    INDEX 01 11:20:06
  TRACK 498 AUDIO
    TITLE "LR_black_phrase_07_0498"
    INDEX 01 11:20:47
  TRACK 499 AUDIO
    TITLE "LR_black_phrase_07_0499"
    INDEX 01 11:22:26
  TRACK 500 AUDIO
    TITLE "LR_black_phrase_07_0500"
    INDEX 01 11:22:60
  TRACK 501 AUDIO
    TITLE "LR_black_phrase_07_0501"
    INDEX 01 11:24:43
  TRACK 502 AUDIO
    TITLE "LR_black_phrase_07_0502"
    INDEX 01 11:25:48
  TRACK 503 AUDIO
    TITLE "LR_black_phrase_07_0503"
    INDEX 01 11:26:63
  TRACK 504 AUDIO
    TITLE "LR_black_phrase_07_0504"
    INDEX 01 11:27:28
  TRACK 505 AUDIO
    TITLE "LR_black_phrase_07_0505"
    INDEX 01 11:29:17
  TRACK 506 AUDIO
    TITLE "LR_black_phrase_07_0506"
    INDEX 01 11:30:20
  TRACK 507 AUDIO
    TITLE "LR_black_phrase_07_0507"
    INDEX 01 11:32:05
  TRACK 508 AUDIO
    TITLE "LR_black_phrase_07_0508"
    INDEX 01 11:32:40
  TRACK 509 AUDIO
    TITLE "LR_black_phrase_07_0509"
    INDEX 01 11:34:45
  TRACK 510 AUDIO
    TITLE "LR_black_phrase_07_0510"
    INDEX 01 11:34:67
  TRACK 511 AUDIO
    TITLE "LR_black_phrase_07_0511"
    INDEX 01 11:36:73
  TRACK 512 AUDIO
    TITLE "LR_black_phrase_07_0512"
    INDEX 01 11:37:73
  TRACK 513 AUDIO
    TITLE "LR_black_phrase_07_0513"
    INDEX 01 11:39:19
  TRACK 514 AUDIO
    TITLE "LR_black_phrase_07_0514"
    INDEX 01 11:39:54
  TRACK 515 AUDIO
    TITLE "LR_black_phrase_07_0515"
    INDEX 01 11:42:19
  TRACK 516 AUDIO
    TITLE "LR_black_phrase_07_0516"
    INDEX 01 11:43:21
  TRACK 517 AUDIO
    TITLE "LR_black_phrase_07_0517"
    INDEX 01 11:45:49
  TRACK 518 AUDIO
    TITLE "LR_black_phrase_07_0518"
    INDEX 01 11:46:07
  TRACK 519 AUDIO
    TITLE "LR_black_phrase_07_0519"
    INDEX 01 11:48:59
  TRACK 520 AUDIO
    TITLE "LR_black_phrase_07_0520"
    INDEX 01 11:49:04
  TRACK 521 AUDIO
    TITLE "LR_black_phrase_07_0521"
    INDEX 01 11:51:57
  TRACK 522 AUDIO
    TITLE "LR_black_phrase_07_0522"
    INDEX 01 11:52:53
  TRACK 523 AUDIO
    TITLE "LR_black_phrase_07_0523"
    INDEX 01 11:53:74
  TRACK 524 AUDIO
    TITLE "LR_black_phrase_07_0524"
    INDEX 01 11:54:36
  TRACK 525 AUDIO
    TITLE "LR_black_phrase_07_0525"
    INDEX 01 11:56:19
  TRACK 526 AUDIO
    TITLE "LR_black_phrase_07_0526"
    INDEX 01 11:57:21
  TRACK 527 AUDIO
    TITLE "LR_black_phrase_07_0527"
    INDEX 01 11:59:06
  TRACK 528 AUDIO
    TITLE "LR_black_phrase_07_0528"
    INDEX 01 11:59:37
  TRACK 529 AUDIO
    TITLE "LR_black_phrase_07_0529"
    INDEX 01 12:01:66
  TRACK 530 AUDIO
    TITLE "LR_black_phrase_07_0530"
    INDEX 01 12:02:16
  TRACK 531 AUDIO
    TITLE "LR_black_phrase_07_0531"
    INDEX 01 12:04:46
  TRACK 532 AUDIO
    TITLE "LR_black_phrase_07_0532"
    INDEX 01 12:05:48
  TRACK 533 AUDIO
    TITLE "LR_black_phrase_07_0533"
    INDEX 01 12:06:69
  TRACK 534 AUDIO
    TITLE "LR_black_phrase_07_0534"
    INDEX 01 12:07:27
  TRACK 535 AUDIO
    TITLE "LR_black_phrase_07_0535"
    INDEX 01 12:08:32
  TRACK 536 AUDIO
    TITLE "LR_black_phrase_07_0536"
    INDEX 01 12:09:32
  TRACK 537 AUDIO
    TITLE "LR_black_phrase_07_0537"
    INDEX 01 12:11:17
  TRACK 538 AUDIO
    TITLE "LR_black_phrase_07_0538"
    INDEX 01 12:11:52
  TRACK 539 AUDIO
    TITLE "LR_black_phrase_07_0539"
    INDEX 01 12:14:13
  TRACK 540 AUDIO
    TITLE "LR_black_phrase_07_0540"
    INDEX 01 12:14:33
  TRACK 541 AUDIO
    TITLE "LR_black_phrase_07_0541"
    INDEX 01 12:16:67
  TRACK 542 AUDIO
    TITLE "LR_black_phrase_07_0542"
    INDEX 01 12:17:65
  TRACK 543 AUDIO
    TITLE "LR_black_phrase_07_0543"
    INDEX 01 12:19:09
  TRACK 544 AUDIO
    TITLE "LR_black_phrase_07_0544"
    INDEX 01 12:19:46
  TRACK 545 AUDIO
    TITLE "LR_black_phrase_07_0545"
    INDEX 01 12:22:38
  TRACK 546 AUDIO
    TITLE "LR_black_phrase_07_0546"
    INDEX 01 12:23:38
  TRACK 547 AUDIO
    TITLE "LR_black_phrase_07_0547"
    INDEX 01 12:25:43
  TRACK 548 AUDIO
    TITLE "LR_black_phrase_07_0548"
    INDEX 01 12:26:01
  TRACK 549 AUDIO
    TITLE "LR_black_phrase_07_0549"
    INDEX 01 12:28:12
  TRACK 550 AUDIO
    TITLE "LR_black_phrase_07_0550"
    INDEX 01 12:28:33
  TRACK 551 AUDIO
    TITLE "LR_black_phrase_07_0551"
    INDEX 01 12:30:46
  TRACK 552 AUDIO
    TITLE "LR_black_phrase_07_0552"
    INDEX 01 12:31:41
  TRACK 553 AUDIO
    TITLE "LR_black_phrase_07_0553"
    INDEX 01 12:33:01
  TRACK 554 AUDIO
    TITLE "LR_black_phrase_07_0554"
    INDEX 01 12:33:34
  TRACK 555 AUDIO
    TITLE "LR_black_phrase_07_0555"
    INDEX 01 12:37:12
  TRACK 556 AUDIO
    TITLE "LR_black_phrase_07_0556"
    INDEX 01 12:38:16
  TRACK 557 AUDIO
    TITLE "LR_black_phrase_07_0557"
    INDEX 01 12:40:19
  TRACK 558 AUDIO
    TITLE "LR_black_phrase_07_0558"
    INDEX 01 12:40:56
  TRACK 559 AUDIO
    TITLE "LR_black_phrase_07_0559"
    INDEX 01 12:42:55
  TRACK 560 AUDIO
    TITLE "LR_black_phrase_07_0560"
    INDEX 01 12:43:01
  TRACK 561 AUDIO
    TITLE "LR_black_phrase_07_0561"
    INDEX 01 12:44:73
  TRACK 562 AUDIO
    TITLE "LR_black_phrase_07_0562"
    INDEX 01 12:45:69
  TRACK 563 AUDIO
    TITLE "LR_black_phrase_07_0563"
    INDEX 01 12:47:03
  TRACK 564 AUDIO
    TITLE "LR_black_phrase_07_0564"
    INDEX 01 12:47:34
  TRACK 565 AUDIO
    TITLE "LR_black_phrase_07_0565"
    INDEX 01 12:50:66
  TRACK 566 AUDIO
    TITLE "LR_black_phrase_07_0566"
    INDEX 01 12:51:64
  TRACK 567 AUDIO
    TITLE "LR_black_phrase_07_0567"
    INDEX 01 12:54:62
  TRACK 568 AUDIO
    TITLE "LR_black_phrase_07_0568"
    INDEX 01 12:55:16
  TRACK 569 AUDIO
    TITLE "LR_black_phrase_07_0569"
    INDEX 01 12:58:24
  TRACK 570 AUDIO
    TITLE "LR_black_phrase_07_0570"
    INDEX 01 12:58:38
  TRACK 571 AUDIO
    TITLE "LR_black_phrase_07_0571"
    INDEX 01 13:01:48
  TRACK 572 AUDIO
    TITLE "LR_black_phrase_07_0572"
    INDEX 01 13:02:40
  TRACK 573 AUDIO
    TITLE "LR_black_phrase_07_0573"
    INDEX 01 13:03:61
  TRACK 574 AUDIO
    TITLE "LR_black_phrase_07_0574"
    INDEX 01 13:04:23
  TRACK 575 AUDIO
    TITLE "LR_black_phrase_07_0575"
    INDEX 01 13:08:07
  TRACK 576 AUDIO
    TITLE "LR_black_phrase_07_0576"
    INDEX 01 13:09:07
  TRACK 577 AUDIO
    TITLE "LR_black_phrase_07_0577"
    INDEX 01 13:11:25
  TRACK 578 AUDIO
    TITLE "LR_black_phrase_07_0578"
    INDEX 01 13:11:56
  TRACK 579 AUDIO
    TITLE "LR_black_phrase_07_0579"
    INDEX 01 13:14:35
  TRACK 580 AUDIO
    TITLE "LR_black_phrase_07_0580"
    INDEX 01 13:14:59
  TRACK 581 AUDIO
    TITLE "LR_black_phrase_07_0581"
    INDEX 01 13:17:26
  TRACK 582 AUDIO
    TITLE "LR_black_phrase_07_0582"
    INDEX 01 13:18:43
  TRACK 583 AUDIO
    TITLE "LR_black_phrase_07_0583"
    INDEX 01 13:19:62
  TRACK 584 AUDIO
    TITLE "LR_black_phrase_07_0584"
    INDEX 01 13:20:28
  TRACK 585 AUDIO
    TITLE "LR_black_phrase_07_0585"
    INDEX 01 13:23:09
  TRACK 586 AUDIO
    TITLE "LR_black_phrase_07_0586"
    INDEX 01 13:24:10
  TRACK 587 AUDIO
    TITLE "LR_black_phrase_07_0587"
    INDEX 01 13:26:38
  TRACK 588 AUDIO
    TITLE "LR_black_phrase_07_0588"
    INDEX 01 13:26:74
  TRACK 589 AUDIO
    TITLE "LR_black_phrase_07_0589"
    INDEX 01 13:29:27
  TRACK 590 AUDIO
    TITLE "LR_black_phrase_07_0590"
    INDEX 01 13:29:48
  TRACK 591 AUDIO
    TITLE "LR_black_phrase_07_0591"
    INDEX 01 13:31:75
  TRACK 592 AUDIO
    TITLE "LR_black_phrase_07_0592"
    INDEX 01 13:32:70
  TRACK 593 AUDIO
    TITLE "LR_black_phrase_07_0593"
    INDEX 01 13:33:68
  TRACK 594 AUDIO
    TITLE "LR_black_phrase_07_0594"
    INDEX 01 13:34:26
  TRACK 595 AUDIO
    TITLE "LR_black_phrase_07_0595"
    INDEX 01 13:35:45
  TRACK 596 AUDIO
    TITLE "LR_black_phrase_07_0596"
    INDEX 01 13:36:45
  TRACK 597 AUDIO
    TITLE "LR_black_phrase_07_0597"
    INDEX 01 13:38:43
  TRACK 598 AUDIO
    TITLE "LR_black_phrase_07_0598"
    INDEX 01 13:39:02
  TRACK 599 AUDIO
    TITLE "LR_black_phrase_07_0599"
    INDEX 01 13:40:64
  TRACK 600 AUDIO
    TITLE "LR_black_phrase_07_0600"
    INDEX 01 13:41:09
  TRACK 601 AUDIO
    TITLE "LR_black_phrase_07_0601"
    INDEX 01 13:42:73
  TRACK 602 AUDIO
    TITLE "LR_black_phrase_07_0602"
    INDEX 01 13:43:72
  TRACK 603 AUDIO
    TITLE "LR_black_phrase_07_0603"
    INDEX 01 13:45:14
  TRACK 604 AUDIO
    TITLE "LR_black_phrase_07_0604"
    INDEX 01 13:45:55
  TRACK 605 AUDIO
    TITLE "LR_black_phrase_07_0605"
    INDEX 01 13:48:09
  TRACK 606 AUDIO
    TITLE "LR_black_phrase_07_0606"
    INDEX 01 13:49:06
  TRACK 607 AUDIO
    TITLE "LR_black_phrase_07_0607"
    INDEX 01 13:51:11
  TRACK 608 AUDIO
    TITLE "LR_black_phrase_07_0608"
    INDEX 01 13:51:52
  TRACK 609 AUDIO
    TITLE "LR_black_phrase_07_0609"
    INDEX 01 13:54:23
  TRACK 610 AUDIO
    TITLE "LR_black_phrase_07_0610"
    INDEX 01 13:54:52
  TRACK 611 AUDIO
    TITLE "LR_black_phrase_07_0611"
    INDEX 01 13:57:25
  TRACK 612 AUDIO
    TITLE "LR_black_phrase_07_0612"
    INDEX 01 13:58:30
  TRACK 613 AUDIO
    TITLE "LR_black_phrase_07_0613"
    INDEX 01 13:59:36
  TRACK 614 AUDIO
    TITLE "LR_black_phrase_07_0614"
    INDEX 01 14:00:02
  TRACK 615 AUDIO
    TITLE "LR_black_phrase_07_0615"
    INDEX 01 14:01:72
  TRACK 616 AUDIO
    TITLE "LR_black_phrase_07_0616"
    INDEX 01 14:02:67
  TRACK 617 AUDIO
    TITLE "LR_black_phrase_07_0617"
    INDEX 01 14:05:33
  TRACK 618 AUDIO
    TITLE "LR_black_phrase_07_0618"
    INDEX 01 14:05:70
  TRACK 619 AUDIO
    TITLE "LR_black_phrase_07_0619"
    INDEX 01 14:07:63
  TRACK 620 AUDIO
    TITLE "LR_black_phrase_07_0620"
    INDEX 01 14:08:19
  TRACK 621 AUDIO
    TITLE "LR_black_phrase_07_0621"
    INDEX 01 14:10:14
  TRACK 622 AUDIO
    TITLE "LR_black_phrase_07_0622"
    INDEX 01 14:11:19
  TRACK 623 AUDIO
    TITLE "LR_black_phrase_07_0623"
    INDEX 01 14:12:50
  TRACK 624 AUDIO
    TITLE "LR_black_phrase_07_0624"
    INDEX 01 14:13:14
  TRACK 625 AUDIO
    TITLE "LR_black_phrase_07_0625"
    INDEX 01 14:15:52
  TRACK 626 AUDIO
    TITLE "LR_black_phrase_07_0626"
    INDEX 01 14:16:52
  TRACK 627 AUDIO
    TITLE "LR_black_phrase_07_0627"
    INDEX 01 14:18:14
  TRACK 628 AUDIO
    TITLE "LR_black_phrase_07_0628"
    INDEX 01 14:18:55
  TRACK 629 AUDIO
    TITLE "LR_black_phrase_07_0629"
    INDEX 01 14:20:48
  TRACK 630 AUDIO
    TITLE "LR_black_phrase_07_0630"
    INDEX 01 14:21:02
  TRACK 631 AUDIO
    TITLE "LR_black_phrase_07_0631"
    INDEX 01 14:22:70
  TRACK 632 AUDIO
    TITLE "LR_black_phrase_07_0632"
    INDEX 01 14:24:01
  TRACK 633 AUDIO
    TITLE "LR_black_phrase_07_0633"
    INDEX 01 14:25:21
  TRACK 634 AUDIO
    TITLE "LR_black_phrase_07_0634"
    INDEX 01 14:25:63
  TRACK 635 AUDIO
    TITLE "LR_black_phrase_07_0635"
    INDEX 01 14:27:64
  TRACK 636 AUDIO
    TITLE "LR_black_phrase_07_0636"
    INDEX 01 14:28:61
  TRACK 637 AUDIO
    TITLE "LR_black_phrase_07_0637"
    INDEX 01 14:30:70
  TRACK 638 AUDIO
    TITLE "LR_black_phrase_07_0638"
    INDEX 01 14:31:34
  TRACK 639 AUDIO
    TITLE "LR_black_phrase_07_0639"
    INDEX 01 14:33:54
  TRACK 640 AUDIO
    TITLE "LR_black_phrase_07_0640"
    INDEX 01 14:34:09
  TRACK 641 AUDIO
    TITLE "LR_black_phrase_07_0641"
    INDEX 01 14:36:29
  TRACK 642 AUDIO
    TITLE "LR_black_phrase_07_0642"
    INDEX 01 14:37:34
  TRACK 643 AUDIO
    TITLE "LR_black_phrase_07_0643"
    INDEX 01 14:38:55
  TRACK 644 AUDIO
    TITLE "LR_black_phrase_07_0644"
    INDEX 01 14:39:20
  TRACK 645 AUDIO
    TITLE "LR_black_phrase_07_0645"
    INDEX 01 14:41:44
  TRACK 646 AUDIO
    TITLE "LR_black_phrase_07_0646"
    INDEX 01 14:42:43
  TRACK 647 AUDIO
    TITLE "LR_black_phrase_07_0647"
    INDEX 01 14:43:66
  TRACK 648 AUDIO
    TITLE "LR_black_phrase_07_0648"
    INDEX 01 14:44:31
  TRACK 649 AUDIO
    TITLE "LR_black_phrase_07_0649"
    INDEX 01 14:46:16
  TRACK 650 AUDIO
    TITLE "LR_black_phrase_07_0650"
    INDEX 01 14:46:45
  TRACK 651 AUDIO
    TITLE "LR_black_phrase_07_0651"
    INDEX 01 14:48:30
  TRACK 652 AUDIO
    TITLE "LR_black_phrase_07_0652"
    INDEX 01 14:49:34
  TRACK 653 AUDIO
    TITLE "LR_black_phrase_07_0653"
    INDEX 01 14:50:45
  TRACK 654 AUDIO
    TITLE "LR_black_phrase_07_0654"
    INDEX 01 14:51:09
  TRACK 655 AUDIO
    TITLE "LR_black_phrase_07_0655"
    INDEX 01 14:52:16
  TRACK 656 AUDIO
    TITLE "LR_black_phrase_07_0656"
    INDEX 01 14:53:16
  TRACK 657 AUDIO
    TITLE "LR_black_phrase_07_0657"
    INDEX 01 14:55:01
  TRACK 658 AUDIO
    TITLE "LR_black_phrase_07_0658"
    INDEX 01 14:55:42
  TRACK 659 AUDIO
    TITLE "LR_black_phrase_07_0659"
    INDEX 01 14:57:35
  TRACK 660 AUDIO
    TITLE "LR_black_phrase_07_0660"
    INDEX 01 14:57:63
  TRACK 661 AUDIO
    TITLE "LR_black_phrase_07_0661"
    INDEX 01 14:59:54
  TRACK 662 AUDIO
    TITLE "LR_black_phrase_07_0662"
    INDEX 01 15:00:57
  TRACK 663 AUDIO
    TITLE "LR_black_phrase_07_0663"
    INDEX 01 15:02:03
  TRACK 664 AUDIO
    TITLE "LR_black_phrase_07_0664"
    INDEX 01 15:02:42
  TRACK 665 AUDIO
    TITLE "LR_black_phrase_07_0665"
    INDEX 01 15:05:03
  TRACK 666 AUDIO
    TITLE "LR_black_phrase_07_0666"
    INDEX 01 15:05:74
  TRACK 667 AUDIO
    TITLE "LR_black_phrase_07_0667"
    INDEX 01 15:07:59
  TRACK 668 AUDIO
    TITLE "LR_black_phrase_07_0668"
    INDEX 01 15:08:25
  TRACK 669 AUDIO
    TITLE "LR_black_phrase_07_0669"
    INDEX 01 15:10:20
  TRACK 670 AUDIO
    TITLE "LR_black_phrase_07_0670"
    INDEX 01 15:10:50
  TRACK 671 AUDIO
    TITLE "LR_black_phrase_07_0671"
    INDEX 01 15:12:48
  TRACK 672 AUDIO
    TITLE "LR_black_phrase_07_0672"
    INDEX 01 15:13:50
  TRACK 673 AUDIO
    TITLE "LR_black_phrase_07_0673"
    INDEX 01 15:14:63
  TRACK 674 AUDIO
    TITLE "LR_black_phrase_07_0674"
    INDEX 01 15:15:25
  TRACK 675 AUDIO
    TITLE "LR_black_phrase_07_0675"
    INDEX 01 15:16:42
  TRACK 676 AUDIO
    TITLE "LR_black_phrase_07_0676"
    INDEX 01 15:17:42
  TRACK 677 AUDIO
    TITLE "LR_black_phrase_07_0677"
    INDEX 01 15:20:25
  TRACK 678 AUDIO
    TITLE "LR_black_phrase_07_0678"
    INDEX 01 15:20:64
  TRACK 679 AUDIO
    TITLE "LR_black_phrase_07_0679"
    INDEX 01 15:22:72
  TRACK 680 AUDIO
    TITLE "LR_black_phrase_07_0680"
    INDEX 01 15:23:27
  TRACK 681 AUDIO
    TITLE "LR_black_phrase_07_0681"
    INDEX 01 15:25:35
  TRACK 682 AUDIO
    TITLE "LR_black_phrase_07_0682"
    INDEX 01 15:26:33
  TRACK 683 AUDIO
    TITLE "LR_black_phrase_07_0683"
    INDEX 01 15:27:46
  TRACK 684 AUDIO
    TITLE "LR_black_phrase_07_0684"
    INDEX 01 15:28:12
  TRACK 685 AUDIO
    TITLE "LR_black_phrase_07_0685"
    INDEX 01 15:31:16
  TRACK 686 AUDIO
    TITLE "LR_black_phrase_07_0686"
    INDEX 01 15:32:16
  TRACK 687 AUDIO
    TITLE "LR_black_phrase_07_0687"
    INDEX 01 15:34:64
  TRACK 688 AUDIO
    TITLE "LR_black_phrase_07_0688"
    INDEX 01 15:35:30
  TRACK 689 AUDIO
    TITLE "LR_black_phrase_07_0689"
    INDEX 01 15:37:60
  TRACK 690 AUDIO
    TITLE "LR_black_phrase_07_0690"
    INDEX 01 15:38:17
  TRACK 691 AUDIO
    TITLE "LR_black_phrase_07_0691"
    INDEX 01 15:40:49
  TRACK 692 AUDIO
    TITLE "LR_black_phrase_07_0692"
    INDEX 01 15:41:54
  TRACK 693 AUDIO
    TITLE "LR_black_phrase_07_0693"
    INDEX 01 15:42:67
  TRACK 694 AUDIO
    TITLE "LR_black_phrase_07_0694"
    INDEX 01 15:43:33
  TRACK 695 AUDIO
    TITLE "LR_black_phrase_07_0695"
    INDEX 01 15:45:75
  TRACK 696 AUDIO
    TITLE "LR_black_phrase_07_0696"
    INDEX 01 15:46:75
  TRACK 697 AUDIO
    TITLE "LR_black_phrase_07_0697"
    INDEX 01 15:48:68
  TRACK 698 AUDIO
    TITLE "LR_black_phrase_07_0698"
    INDEX 01 15:49:32
  TRACK 699 AUDIO
    TITLE "LR_black_phrase_07_0699"
    INDEX 01 15:51:19
  TRACK 700 AUDIO
    TITLE "LR_black_phrase_07_0700"
    INDEX 01 15:51:51
  TRACK 701 AUDIO
    TITLE "LR_black_phrase_07_0701"
    INDEX 01 15:53:38
  TRACK 702 AUDIO
    TITLE "LR_black_phrase_07_0702"
    INDEX 01 15:54:41
  TRACK 703 AUDIO
    TITLE "LR_black_phrase_07_0703"
    INDEX 01 15:55:72
  TRACK 704 AUDIO
    TITLE "LR_black_phrase_07_0704"
    INDEX 01 15:56:32
  TRACK 705 AUDIO
    TITLE "LR_black_phrase_07_0705"
    INDEX 01 15:59:23
  TRACK 706 AUDIO
    TITLE "LR_black_phrase_07_0706"
    INDEX 01 16:00:22
  TRACK 707 AUDIO
    TITLE "LR_black_phrase_07_0707"
    INDEX 01 16:02:66
  TRACK 708 AUDIO
    TITLE "LR_black_phrase_07_0708"
    INDEX 01 16:03:24
  TRACK 709 AUDIO
    TITLE "LR_black_phrase_07_0709"
    INDEX 01 16:05:33
  TRACK 710 AUDIO
    TITLE "LR_black_phrase_07_0710"
    INDEX 01 16:05:53
  TRACK 711 AUDIO
    TITLE "LR_black_phrase_07_0711"
    INDEX 01 16:07:61
  TRACK 712 AUDIO
    TITLE "LR_black_phrase_07_0712"
    INDEX 01 16:08:55
  TRACK 713 AUDIO
    TITLE "LR_black_phrase_07_0713"
    INDEX 01 16:10:01
  TRACK 714 AUDIO
    TITLE "LR_black_phrase_07_0714"
    INDEX 01 16:10:42
  TRACK 715 AUDIO
    TITLE "LR_black_phrase_07_0715"
    INDEX 01 16:12:23
  TRACK 716 AUDIO
    TITLE "LR_black_phrase_07_0716"
    INDEX 01 16:13:21
  TRACK 717 AUDIO
    TITLE "LR_black_phrase_07_0717"
    INDEX 01 16:16:03
  TRACK 718 AUDIO
    TITLE "LR_black_phrase_07_0718"
    INDEX 01 16:16:37
  TRACK 719 AUDIO
    TITLE "LR_black_phrase_07_0719"
    INDEX 01 16:18:49
  TRACK 720 AUDIO
    TITLE "LR_black_phrase_07_0720"
    INDEX 01 16:18:71
  TRACK 721 AUDIO
    TITLE "LR_black_phrase_07_0721"
    INDEX 01 16:21:07
  TRACK 722 AUDIO
    TITLE "LR_black_phrase_07_0722"
    INDEX 01 16:22:02
  TRACK 723 AUDIO
    TITLE "LR_black_phrase_07_0723"
    INDEX 01 16:23:35
  TRACK 724 AUDIO
    TITLE "LR_black_phrase_07_0724"
    INDEX 01 16:23:72
  TRACK 725 AUDIO
    TITLE "LR_black_phrase_07_0725"
    INDEX 01 16:24:68
  TRACK 726 AUDIO
    TITLE "LR_black_phrase_07_0726"
    INDEX 01 16:25:67
  TRACK 727 AUDIO
    TITLE "LR_black_phrase_07_0727"
    INDEX 01 16:27:64
  TRACK 728 AUDIO
    TITLE "LR_black_phrase_07_0728"
    INDEX 01 16:28:26
  TRACK 729 AUDIO
    TITLE "LR_black_phrase_07_0729"
    INDEX 01 16:30:62
  TRACK 730 AUDIO
    TITLE "LR_black_phrase_07_0730"
    INDEX 01 16:31:13
  TRACK 731 AUDIO
    TITLE "LR_black_phrase_07_0731"
    INDEX 01 16:33:51
  TRACK 732 AUDIO
    TITLE "LR_black_phrase_07_0732"
    INDEX 01 16:34:46
  TRACK 733 AUDIO
    TITLE "LR_black_phrase_07_0733"
    INDEX 01 16:35:65
  TRACK 734 AUDIO
    TITLE "LR_black_phrase_07_0734"
    INDEX 01 16:36:28
  TRACK 735 AUDIO
    TITLE "LR_black_phrase_07_0735"
    INDEX 01 16:38:72
  TRACK 736 AUDIO
    TITLE "LR_black_phrase_07_0736"
    INDEX 01 16:39:73
  TRACK 737 AUDIO
    TITLE "LR_black_phrase_07_0737"
    INDEX 01 16:41:74
  TRACK 738 AUDIO
    TITLE "LR_black_phrase_07_0738"
    INDEX 01 16:42:32
  TRACK 739 AUDIO
    TITLE "LR_black_phrase_07_0739"
    INDEX 01 16:44:41
  TRACK 740 AUDIO
    TITLE "LR_black_phrase_07_0740"
    INDEX 01 16:44:66
  TRACK 741 AUDIO
    TITLE "LR_black_phrase_07_0741"
    INDEX 01 16:46:75
  TRACK 742 AUDIO
    TITLE "LR_black_phrase_07_0742"
    INDEX 01 16:48:01
  TRACK 743 AUDIO
    TITLE "LR_black_phrase_07_0743"
    INDEX 01 16:49:22
  TRACK 744 AUDIO
    TITLE "LR_black_phrase_07_0744"
    INDEX 01 16:49:58
  TRACK 745 AUDIO
    TITLE "LR_black_phrase_07_0745"
    INDEX 01 16:51:02
  TRACK 746 AUDIO
    TITLE "LR_black_phrase_07_0746"
    INDEX 01 16:52:01
  TRACK 747 AUDIO
    TITLE "LR_black_phrase_07_0747"
    INDEX 01 16:54:51
  TRACK 748 AUDIO
    TITLE "LR_black_phrase_07_0748"
    INDEX 01 16:55:09
  TRACK 749 AUDIO
    TITLE "LR_black_phrase_07_0749"
    INDEX 01 16:57:73
  TRACK 750 AUDIO
    TITLE "LR_black_phrase_07_0750"
    INDEX 01 16:58:19
  TRACK 751 AUDIO
    TITLE "LR_black_phrase_07_0751"
    INDEX 01 17:01:06
  TRACK 752 AUDIO
    TITLE "LR_black_phrase_07_0752"
    INDEX 01 17:01:75
  TRACK 753 AUDIO
    TITLE "LR_black_phrase_07_0753"
    INDEX 01 17:03:15
  TRACK 754 AUDIO
    TITLE "LR_black_phrase_07_0754"
    INDEX 01 17:03:50
  TRACK 755 AUDIO
    TITLE "LR_black_phrase_07_0755"
    INDEX 01 17:05:04
  TRACK 756 AUDIO
    TITLE "LR_black_phrase_07_0756"
    INDEX 01 17:06:01
  TRACK 757 AUDIO
    TITLE "LR_black_phrase_07_0757"
    INDEX 01 17:07:65
  TRACK 758 AUDIO
    TITLE "LR_black_phrase_07_0758"
    INDEX 01 17:08:26
  TRACK 759 AUDIO
    TITLE "LR_black_phrase_07_0759"
    INDEX 01 17:10:34
  TRACK 760 AUDIO
    TITLE "LR_black_phrase_07_0760"
    INDEX 01 17:10:54
  TRACK 761 AUDIO
    TITLE "LR_black_phrase_07_0761"
    INDEX 01 17:12:65
  TRACK 762 AUDIO
    TITLE "LR_black_phrase_07_0762"
    INDEX 01 17:13:60
  TRACK 763 AUDIO
    TITLE "LR_black_phrase_07_0763"
    INDEX 01 17:14:69
  TRACK 764 AUDIO
    TITLE "LR_black_phrase_07_0764"
    INDEX 01 17:15:30
  TRACK 765 AUDIO
    TITLE "LR_black_phrase_07_0765"
    INDEX 01 17:19:10
  TRACK 766 AUDIO
    TITLE "LR_black_phrase_07_0766"
    INDEX 01 17:20:09
  TRACK 767 AUDIO
    TITLE "LR_black_phrase_07_0767"
    INDEX 01 17:21:70
  TRACK 768 AUDIO
    TITLE "LR_black_phrase_07_0768"
    INDEX 01 17:22:26
  TRACK 769 AUDIO
    TITLE "LR_black_phrase_07_0769"
    INDEX 01 17:24:27
  TRACK 770 AUDIO
    TITLE "LR_black_phrase_07_0770"
    INDEX 01 17:24:50
  TRACK 771 AUDIO
    TITLE "LR_black_phrase_07_0771"
    INDEX 01 17:26:49
  TRACK 772 AUDIO
    TITLE "LR_black_phrase_07_0772"
    INDEX 01 17:27:49
  TRACK 773 AUDIO
    TITLE "LR_black_phrase_07_0773"
    INDEX 01 17:29:14
  TRACK 774 AUDIO
    TITLE "LR_black_phrase_07_0774"
    INDEX 01 17:29:49
  TRACK 775 AUDIO
    TITLE "LR_black_phrase_07_0775"
    INDEX 01 17:31:62
  TRACK 776 AUDIO
    TITLE "LR_black_phrase_07_0776"
    INDEX 01 17:32:60
  TRACK 777 AUDIO
    TITLE "LR_black_phrase_07_0777"
    INDEX 01 17:35:07
  TRACK 778 AUDIO
    TITLE "LR_black_phrase_07_0778"
    INDEX 01 17:35:42
  TRACK 779 AUDIO
    TITLE "LR_black_phrase_07_0779"
    INDEX 01 17:38:25
  TRACK 780 AUDIO
    TITLE "LR_black_phrase_07_0780"
    INDEX 01 17:38:46
  TRACK 781 AUDIO
    TITLE "LR_black_phrase_07_0781"
    INDEX 01 17:41:31
  TRACK 782 AUDIO
    TITLE "LR_black_phrase_07_0782"
    INDEX 01 17:42:31
  TRACK 783 AUDIO
    TITLE "LR_black_phrase_07_0783"
    INDEX 01 17:43:34
  TRACK 784 AUDIO
    TITLE "LR_black_phrase_07_0784"
    INDEX 01 17:43:69
  TRACK 785 AUDIO
    TITLE "LR_black_phrase_07_0785"
    INDEX 01 17:45:05
  TRACK 786 AUDIO
    TITLE "LR_black_phrase_07_0786"
    INDEX 01 17:46:05
  TRACK 787 AUDIO
    TITLE "LR_black_phrase_07_0787"
    INDEX 01 17:48:49
  TRACK 788 AUDIO
    TITLE "LR_black_phrase_07_0788"
    INDEX 01 17:49:07
  TRACK 789 AUDIO
    TITLE "LR_black_phrase_07_0789"
    INDEX 01 17:51:55
  TRACK 790 AUDIO
    TITLE "LR_black_phrase_07_0790"
    INDEX 01 17:52:05
  TRACK 791 AUDIO
    TITLE "LR_black_phrase_07_0791"
    INDEX 01 17:54:51
  TRACK 792 AUDIO
    TITLE "LR_black_phrase_07_0792"
    INDEX 01 17:55:47
  TRACK 793 AUDIO
    TITLE "LR_black_phrase_07_0793"
    INDEX 01 17:56:68
  TRACK 794 AUDIO
    TITLE "LR_black_phrase_07_0794"
    INDEX 01 17:57:24
  TRACK 795 AUDIO
    TITLE "LR_black_phrase_07_0795"
    INDEX 01 17:58:69
  TRACK 796 AUDIO
    TITLE "LR_black_phrase_07_0796"
    INDEX 01 17:59:66
  TRACK 797 AUDIO
    TITLE "LR_black_phrase_07_0797"
    INDEX 01 18:01:59
  TRACK 798 AUDIO
    TITLE "LR_black_phrase_07_0798"
    INDEX 01 18:02:19
  TRACK 799 AUDIO
    TITLE "LR_black_phrase_07_0799"
    INDEX 01 18:04:13
  TRACK 800 AUDIO
    TITLE "LR_black_phrase_07_0800"
    INDEX 01 18:04:32
  TRACK 801 AUDIO
    TITLE "LR_black_phrase_07_0801"
    INDEX 01 18:06:19
  TRACK 802 AUDIO
    TITLE "LR_black_phrase_07_0802"
    INDEX 01 18:07:21
  TRACK 803 AUDIO
    TITLE "LR_black_phrase_07_0803"
    INDEX 01 18:08:40
  TRACK 804 AUDIO
    TITLE "LR_black_phrase_07_0804"
    INDEX 01 18:09:04
  TRACK 805 AUDIO
    TITLE "LR_black_phrase_07_0805"
    INDEX 01 18:11:07
  TRACK 806 AUDIO
    TITLE "LR_black_phrase_07_0806"
    INDEX 01 18:12:04
  TRACK 807 AUDIO
    TITLE "LR_black_phrase_07_0807"
    INDEX 01 18:13:39
  TRACK 808 AUDIO
    TITLE "LR_black_phrase_07_0808"
    INDEX 01 18:14:03
  TRACK 809 AUDIO
    TITLE "LR_black_phrase_07_0809"
    INDEX 01 18:16:22
  TRACK 810 AUDIO
    TITLE "LR_black_phrase_07_0810"
    INDEX 01 18:16:57
  TRACK 811 AUDIO
    TITLE "LR_black_phrase_07_0811"
    INDEX 01 18:18:75
  TRACK 812 AUDIO
    TITLE "LR_black_phrase_07_0812"
    INDEX 01 18:20:08
  TRACK 813 AUDIO
    TITLE "LR_black_phrase_07_0813"
    INDEX 01 18:21:33
  TRACK 814 AUDIO
    TITLE "LR_black_phrase_07_0814"
    INDEX 01 18:21:70
  TRACK 815 AUDIO
    TITLE "LR_black_phrase_07_0815"
    INDEX 01 18:24:60
  TRACK 816 AUDIO
    TITLE "LR_black_phrase_07_0816"
    INDEX 01 18:25:60
  TRACK 817 AUDIO
    TITLE "LR_black_phrase_07_0817"
    INDEX 01 18:28:44
  TRACK 818 AUDIO
    TITLE "LR_black_phrase_07_0818"
    INDEX 01 18:29:10
  TRACK 819 AUDIO
    TITLE "LR_black_phrase_07_0819"
    INDEX 01 18:31:47
  TRACK 820 AUDIO
    TITLE "LR_black_phrase_07_0820"
    INDEX 01 18:32:03
  TRACK 821 AUDIO
    TITLE "LR_black_phrase_07_0821"
    INDEX 01 18:34:41
  TRACK 822 AUDIO
    TITLE "LR_black_phrase_07_0822"
    INDEX 01 18:35:46
  TRACK 823 AUDIO
    TITLE "LR_black_phrase_07_0823"
    INDEX 01 18:36:71
  TRACK 824 AUDIO
    TITLE "LR_black_phrase_07_0824"
    INDEX 01 18:37:37
  TRACK 825 AUDIO
    TITLE "LR_black_phrase_07_0825"
    INDEX 01 18:39:15
  TRACK 826 AUDIO
    TITLE "LR_black_phrase_07_0826"
    INDEX 01 18:40:12
  TRACK 827 AUDIO
    TITLE "LR_black_phrase_07_0827"
    INDEX 01 18:42:50
  TRACK 828 AUDIO
    TITLE "LR_black_phrase_07_0828"
    INDEX 01 18:43:15
  TRACK 829 AUDIO
    TITLE "LR_black_phrase_07_0829"
    INDEX 01 18:45:62
  TRACK 830 AUDIO
    TITLE "LR_black_phrase_07_0830"
    INDEX 01 18:46:17
  TRACK 831 AUDIO
    TITLE "LR_black_phrase_07_0831"
    INDEX 01 18:48:65
  TRACK 832 AUDIO
    TITLE "LR_black_phrase_07_0832"
    INDEX 01 18:49:70
  TRACK 833 AUDIO
    TITLE "LR_black_phrase_07_0833"
    INDEX 01 18:51:22
  TRACK 834 AUDIO
    TITLE "LR_black_phrase_07_0834"
    INDEX 01 18:51:63
  TRACK 835 AUDIO
    TITLE "LR_black_phrase_07_0835"
    INDEX 01 18:52:68
  TRACK 836 AUDIO
    TITLE "LR_black_phrase_07_0836"
    INDEX 01 18:53:66
  TRACK 837 AUDIO
    TITLE "LR_black_phrase_07_0837"
    INDEX 01 18:56:01
  TRACK 838 AUDIO
    TITLE "LR_black_phrase_07_0838"
    INDEX 01 18:56:39
  TRACK 839 AUDIO
    TITLE "LR_black_phrase_07_0839"
    INDEX 01 18:58:67
  TRACK 840 AUDIO
    TITLE "LR_black_phrase_07_0840"
    INDEX 01 18:59:21
  TRACK 841 AUDIO
    TITLE "LR_black_phrase_07_0841"
    INDEX 01 19:01:50
  TRACK 842 AUDIO
    TITLE "LR_black_phrase_07_0842"
    INDEX 01 19:02:55
  TRACK 843 AUDIO
    TITLE "LR_black_phrase_07_0843"
    INDEX 01 19:04:01
  TRACK 844 AUDIO
    TITLE "LR_black_phrase_07_0844"
    INDEX 01 19:04:38
  TRACK 845 AUDIO
    TITLE "LR_black_phrase_07_0845"
    INDEX 01 19:06:45
  TRACK 846 AUDIO
    TITLE "LR_black_phrase_07_0846"
    INDEX 01 19:07:42
  TRACK 847 AUDIO
    TITLE "LR_black_phrase_07_0847"
    INDEX 01 19:09:02
  TRACK 848 AUDIO
    TITLE "LR_black_phrase_07_0848"
    INDEX 01 19:09:41
  TRACK 849 AUDIO
    TITLE "LR_black_phrase_07_0849"
    INDEX 01 19:11:48
  TRACK 850 AUDIO
    TITLE "LR_black_phrase_07_0850"
    INDEX 01 19:12:01
  TRACK 851 AUDIO
    TITLE "LR_black_phrase_07_0851"
    INDEX 01 19:14:03
  TRACK 852 AUDIO
    TITLE "LR_black_phrase_07_0852"
    INDEX 01 19:15:07
  TRACK 853 AUDIO
    TITLE "LR_black_phrase_07_0853"
    INDEX 01 19:16:22
  TRACK 854 AUDIO
    TITLE "LR_black_phrase_07_0854"
    INDEX 01 19:16:59
  TRACK 855 AUDIO
    TITLE "LR_black_phrase_07_0855"
    INDEX 01 19:19:12
  TRACK 856 AUDIO
    TITLE "LR_black_phrase_07_0856"
    INDEX 01 19:20:12
  TRACK 857 AUDIO
    TITLE "LR_black_phrase_07_0857"
    INDEX 01 19:21:60
  TRACK 858 AUDIO
    TITLE "LR_black_phrase_07_0858"
    INDEX 01 19:22:20
  TRACK 859 AUDIO
    TITLE "LR_black_phrase_07_0859"
    INDEX 01 19:24:04
  TRACK 860 AUDIO
    TITLE "LR_black_phrase_07_0860"
    INDEX 01 19:24:27
  TRACK 861 AUDIO
    TITLE "LR_black_phrase_07_0861"
    INDEX 01 19:26:10
  TRACK 862 AUDIO
    TITLE "LR_black_phrase_07_0862"
    INDEX 01 19:27:16
  TRACK 863 AUDIO
    TITLE "LR_black_phrase_07_0863"
    INDEX 01 19:28:17
  TRACK 864 AUDIO
    TITLE "LR_black_phrase_07_0864"
    INDEX 01 19:28:56
  TRACK 865 AUDIO
    TITLE "LR_black_phrase_07_0865"
    INDEX 01 19:29:73
  TRACK 866 AUDIO
    TITLE "LR_black_phrase_07_0866"
    INDEX 01 19:30:71
  TRACK 867 AUDIO
    TITLE "LR_black_phrase_07_0867"
    INDEX 01 19:32:40
  TRACK 868 AUDIO
    TITLE "LR_black_phrase_07_0868"
    INDEX 01 19:33:05
  TRACK 869 AUDIO
    TITLE "LR_black_phrase_07_0869"
    INDEX 01 19:34:51
  TRACK 870 AUDIO
    TITLE "LR_black_phrase_07_0870"
    INDEX 01 19:35:05
  TRACK 871 AUDIO
    TITLE "LR_black_phrase_07_0871"
    INDEX 01 19:36:52
  TRACK 872 AUDIO
    TITLE "LR_black_phrase_07_0872"
    INDEX 01 19:37:55
  TRACK 873 AUDIO
    TITLE "LR_black_phrase_07_0873"
    INDEX 01 19:39:11
  TRACK 874 AUDIO
    TITLE "LR_black_phrase_07_0874"
    INDEX 01 19:39:50
  TRACK 875 AUDIO
    TITLE "LR_black_phrase_07_0875"
    INDEX 01 19:41:14
  TRACK 876 AUDIO
    TITLE "LR_black_phrase_07_0876"
    INDEX 01 19:42:15
  TRACK 877 AUDIO
    TITLE "LR_black_phrase_07_0877"
    INDEX 01 19:44:20
  TRACK 878 AUDIO
    TITLE "LR_black_phrase_07_0878"
    INDEX 01 19:44:63
  TRACK 879 AUDIO
    TITLE "LR_black_phrase_07_0879"
    INDEX 01 19:46:56
  TRACK 880 AUDIO
    TITLE "LR_black_phrase_07_0880"
    INDEX 01 19:47:11
  TRACK 881 AUDIO
    TITLE "LR_black_phrase_07_0881"
    INDEX 01 19:49:06
  TRACK 882 AUDIO
    TITLE "LR_black_phrase_07_0882"
    INDEX 01 19:50:13
  TRACK 883 AUDIO
    TITLE "LR_black_phrase_07_0883"
    INDEX 01 19:51:20
  TRACK 884 AUDIO
    TITLE "LR_black_phrase_07_0884"
    INDEX 01 19:51:59
  TRACK 885 AUDIO
    TITLE "LR_black_phrase_07_0885"
    INDEX 01 19:53:23
  TRACK 886 AUDIO
    TITLE "LR_black_phrase_07_0886"
    INDEX 01 19:54:22
  TRACK 887 AUDIO
    TITLE "LR_black_phrase_07_0887"
    INDEX 01 19:56:66
  TRACK 888 AUDIO
    TITLE "LR_black_phrase_07_0888"
    INDEX 01 19:57:31
  TRACK 889 AUDIO
    TITLE "LR_black_phrase_07_0889"
    INDEX 01 19:59:49
  TRACK 890 AUDIO
    TITLE "LR_black_phrase_07_0890"
    INDEX 01 20:00:05
  TRACK 891 AUDIO
    TITLE "LR_black_phrase_07_0891"
    INDEX 01 20:02:24
  TRACK 892 AUDIO
    TITLE "LR_black_phrase_07_0892"
    INDEX 01 20:03:29
  TRACK 893 AUDIO
    TITLE "LR_black_phrase_07_0893"
    INDEX 01 20:04:42
  TRACK 894 AUDIO
    TITLE "LR_black_phrase_07_0894"
    INDEX 01 20:05:09
  TRACK 895 AUDIO
    TITLE "LR_black_phrase_07_0895"
    INDEX 01 20:07:27
  TRACK 896 AUDIO
    TITLE "LR_black_phrase_07_0896"
    INDEX 01 20:08:24
  TRACK 897 AUDIO
    TITLE "LR_black_phrase_07_0897"
    INDEX 01 20:10:53
  TRACK 898 AUDIO
    TITLE "LR_black_phrase_07_0898"
    INDEX 01 20:11:17
  TRACK 899 AUDIO
    TITLE "LR_black_phrase_07_0899"
    INDEX 01 20:13:47
  TRACK 900 AUDIO
    TITLE "LR_black_phrase_07_0900"
    INDEX 01 20:13:75
  TRACK 901 AUDIO
    TITLE "LR_black_phrase_07_0901"
    INDEX 01 20:16:28
  TRACK 902 AUDIO
    TITLE "LR_black_phrase_07_0902"
    INDEX 01 20:17:27
  TRACK 903 AUDIO
    TITLE "LR_black_phrase_07_0903"
    INDEX 01 20:18:42
  TRACK 904 AUDIO
    TITLE "LR_black_phrase_07_0904"
    INDEX 01 20:19:05
  TRACK 905 AUDIO
    TITLE "LR_black_phrase_07_0905"
    INDEX 01 20:20:39
  TRACK 906 AUDIO
    TITLE "LR_black_phrase_07_0906"
    INDEX 01 20:21:35
  TRACK 907 AUDIO
    TITLE "LR_black_phrase_07_0907"
    INDEX 01 20:23:73
  TRACK 908 AUDIO
    TITLE "LR_black_phrase_07_0908"
    INDEX 01 20:24:31
  TRACK 909 AUDIO
    TITLE "LR_black_phrase_07_0909"
    INDEX 01 20:27:12
  TRACK 910 AUDIO
    TITLE "LR_black_phrase_07_0910"
    INDEX 01 20:27:30
  TRACK 911 AUDIO
    TITLE "LR_black_phrase_07_0911"
    INDEX 01 20:30:10
  TRACK 912 AUDIO
    TITLE "LR_black_phrase_07_0912"
    INDEX 01 20:31:02
  TRACK 913 AUDIO
    TITLE "LR_black_phrase_07_0913"
    INDEX 01 20:32:21
  TRACK 914 AUDIO
    TITLE "LR_black_phrase_07_0914"
    INDEX 01 20:32:56
  TRACK 915 AUDIO
    TITLE "LR_black_phrase_07_0915"
    INDEX 01 20:34:10
  TRACK 916 AUDIO
    TITLE "LR_black_phrase_07_0916"
    INDEX 01 20:35:08
  TRACK 917 AUDIO
    TITLE "LR_black_phrase_07_0917"
    INDEX 01 20:37:59
  TRACK 918 AUDIO
    TITLE "LR_black_phrase_07_0918"
    INDEX 01 20:38:18
  TRACK 919 AUDIO
    TITLE "LR_black_phrase_07_0919"
    INDEX 01 20:40:70
  TRACK 920 AUDIO
    TITLE "LR_black_phrase_07_0920"
    INDEX 01 20:41:16
  TRACK 921 AUDIO
    TITLE "LR_black_phrase_07_0921"
    INDEX 01 20:43:68
  TRACK 922 AUDIO
    TITLE "LR_black_phrase_07_0922"
    INDEX 01 20:44:67
  TRACK 923 AUDIO
    TITLE "LR_black_phrase_07_0923"
    INDEX 01 20:46:09
  TRACK 924 AUDIO
    TITLE "LR_black_phrase_07_0924"
    INDEX 01 20:46:45
  TRACK 925 AUDIO
    TITLE "LR_black_phrase_07_0925"
    INDEX 01 20:48:04
  TRACK 926 AUDIO
    TITLE "LR_black_phrase_07_0926"
    INDEX 01 20:49:04
  TRACK 927 AUDIO
    TITLE "LR_black_phrase_07_0927"
    INDEX 01 20:51:28
  TRACK 928 AUDIO
    TITLE "LR_black_phrase_07_0928"
    INDEX 01 20:51:62
  TRACK 929 AUDIO
    TITLE "LR_black_phrase_07_0929"
    INDEX 01 20:54:25
  TRACK 930 AUDIO
    TITLE "LR_black_phrase_07_0930"
    INDEX 01 20:54:48
  TRACK 931 AUDIO
    TITLE "LR_black_phrase_07_0931"
    INDEX 01 20:57:09
  TRACK 932 AUDIO
    TITLE "LR_black_phrase_07_0932"
    INDEX 01 20:58:07
  TRACK 933 AUDIO
    TITLE "LR_black_phrase_07_0933"
    INDEX 01 20:59:16
  TRACK 934 AUDIO
    TITLE "LR_black_phrase_07_0934"
    INDEX 01 20:59:51
  TRACK 935 AUDIO
    TITLE "LR_black_phrase_07_0935"
    INDEX 01 21:00:62
  TRACK 936 AUDIO
    TITLE "LR_black_phrase_07_0936"
    INDEX 01 21:01:62
  TRACK 937 AUDIO
    TITLE "LR_black_phrase_07_0937"
    INDEX 01 21:03:29
  TRACK 938 AUDIO
    TITLE "LR_black_phrase_07_0938"
    INDEX 01 21:03:59
  TRACK 939 AUDIO
    TITLE "LR_black_phrase_07_0939"
    INDEX 01 21:05:48
  TRACK 940 AUDIO
    TITLE "LR_black_phrase_07_0940"
    INDEX 01 21:05:71
  TRACK 941 AUDIO
    TITLE "LR_black_phrase_07_0941"
    INDEX 01 21:07:61
  TRACK 942 AUDIO
    TITLE "LR_black_phrase_07_0942"
    INDEX 01 21:08:60
  TRACK 943 AUDIO
    TITLE "LR_black_phrase_07_0943"
    INDEX 01 21:09:73
  TRACK 944 AUDIO
    TITLE "LR_black_phrase_07_0944"
    INDEX 01 21:10:31
  TRACK 945 AUDIO
    TITLE "LR_black_phrase_07_0945"
    INDEX 01 21:14:04
  TRACK 946 AUDIO
    TITLE "LR_black_phrase_07_0946"
    INDEX 01 21:15:03
  TRACK 947 AUDIO
    TITLE "LR_black_phrase_07_0947"
    INDEX 01 21:16:54
  TRACK 948 AUDIO
    TITLE "LR_black_phrase_07_0948"
    INDEX 01 21:17:16
  TRACK 949 AUDIO
    TITLE "LR_black_phrase_07_0949"
    INDEX 01 21:19:46
  TRACK 950 AUDIO
    TITLE "LR_black_phrase_07_0950"
    INDEX 01 21:19:72
  TRACK 951 AUDIO
    TITLE "LR_black_phrase_07_0951"
    INDEX 01 21:22:29
  TRACK 952 AUDIO
    TITLE "LR_black_phrase_07_0952"
    INDEX 01 21:23:30
  TRACK 953 AUDIO
    TITLE "LR_black_phrase_07_0953"
    INDEX 01 21:24:57
  TRACK 954 AUDIO
    TITLE "LR_black_phrase_07_0954"
    INDEX 01 21:25:13
  TRACK 955 AUDIO
    TITLE "LR_black_phrase_07_0955"
    INDEX 01 21:27:42
  TRACK 956 AUDIO
    TITLE "LR_black_phrase_07_0956"
    INDEX 01 21:28:41
  TRACK 957 AUDIO
    TITLE "LR_black_phrase_07_0957"
    INDEX 01 21:30:44
  TRACK 958 AUDIO
    TITLE "LR_black_phrase_07_0958"
    INDEX 01 21:31:10
  TRACK 959 AUDIO
    TITLE "LR_black_phrase_07_0959"
    INDEX 01 21:33:05
  TRACK 960 AUDIO
    TITLE "LR_black_phrase_07_0960"
    INDEX 01 21:33:25
  TRACK 961 AUDIO
    TITLE "LR_black_phrase_07_0961"
    INDEX 01 21:35:16
  TRACK 962 AUDIO
    TITLE "LR_black_phrase_07_0962"
    INDEX 01 21:36:17
  TRACK 963 AUDIO
    TITLE "LR_black_phrase_07_0963"
    INDEX 01 21:37:34
  TRACK 964 AUDIO
    TITLE "LR_black_phrase_07_0964"
    INDEX 01 21:37:70
  TRACK 965 AUDIO
    TITLE "LR_black_phrase_07_0965"
    INDEX 01 21:39:10
  TRACK 966 AUDIO
    TITLE "LR_black_phrase_07_0966"
    INDEX 01 21:40:09
  TRACK 967 AUDIO
    TITLE "LR_black_phrase_07_0967"
    INDEX 01 21:41:61
  TRACK 968 AUDIO
    TITLE "LR_black_phrase_07_0968"
    INDEX 01 21:42:20
  TRACK 969 AUDIO
    TITLE "LR_black_phrase_07_0969"
    INDEX 01 21:43:74
  TRACK 970 AUDIO
    TITLE "LR_black_phrase_07_0970"
    INDEX 01 21:44:21
  TRACK 971 AUDIO
    TITLE "LR_black_phrase_07_0971"
    INDEX 01 21:45:73
  TRACK 972 AUDIO
    TITLE "LR_black_phrase_07_0972"
    INDEX 01 21:46:68
  TRACK 973 AUDIO
    TITLE "LR_black_phrase_07_0973"
    INDEX 01 21:48:09
  TRACK 974 AUDIO
    TITLE "LR_black_phrase_07_0974"
    INDEX 01 21:48:44
  TRACK 975 AUDIO
    TITLE "LR_black_phrase_07_0975"
    INDEX 01 21:52:02
  TRACK 976 AUDIO
    TITLE "LR_black_phrase_07_0976"
    INDEX 01 21:53:04
  TRACK 977 AUDIO
    TITLE "LR_black_phrase_07_0977"
    INDEX 01 21:55:09
  TRACK 978 AUDIO
    TITLE "LR_black_phrase_07_0978"
    INDEX 01 21:55:42
  TRACK 979 AUDIO
    TITLE "LR_black_phrase_07_0979"
    INDEX 01 21:57:35
  TRACK 980 AUDIO
    TITLE "LR_black_phrase_07_0980"
    INDEX 01 21:57:64
  TRACK 981 AUDIO
    TITLE "LR_black_phrase_07_0981"
    INDEX 01 21:59:57
  TRACK 982 AUDIO
    TITLE "LR_black_phrase_07_0982"
    INDEX 01 22:00:63
  TRACK 983 AUDIO
    TITLE "LR_black_phrase_07_0983"
    INDEX 01 22:01:74
  TRACK 984 AUDIO
    TITLE "LR_black_phrase_07_0984"
    INDEX 01 22:02:36
  TRACK 985 AUDIO
    TITLE "LR_black_phrase_07_0985"
    INDEX 01 22:04:49
  TRACK 986 AUDIO
    TITLE "LR_black_phrase_07_0986"
    INDEX 01 22:05:46
  TRACK 987 AUDIO
    TITLE "LR_black_phrase_07_0987"
    INDEX 01 22:07:65
  TRACK 988 AUDIO
    TITLE "LR_black_phrase_07_0988"
    INDEX 01 22:08:23
  TRACK 989 AUDIO
    TITLE "LR_black_phrase_07_0989"
    INDEX 01 22:10:40
  TRACK 990 AUDIO
    TITLE "LR_black_phrase_07_0990"
    INDEX 01 22:10:59
  TRACK 991 AUDIO
    TITLE "LR_black_phrase_07_0991"
    INDEX 01 22:13:03
  TRACK 992 AUDIO
    TITLE "LR_black_phrase_07_0992"
    INDEX 01 22:13:71
  TRACK 993 AUDIO
    TITLE "LR_black_phrase_07_0993"
    INDEX 01 22:15:31
  TRACK 994 AUDIO
    TITLE "LR_black_phrase_07_0994"
    INDEX 01 22:15:68
  TRACK 995 AUDIO
    TITLE "LR_black_phrase_07_0995"
    INDEX 01 22:18:39
  TRACK 996 AUDIO
    TITLE "LR_black_phrase_07_0996"
    INDEX 01 22:19:39
  TRACK 997 AUDIO
    TITLE "LR_black_phrase_07_0997"
    INDEX 01 22:21:34
  TRACK 998 AUDIO
    TITLE "LR_black_phrase_07_0998"
    INDEX 01 22:21:75
  TRACK 999 AUDIO
    TITLE "LR_black_phrase_07_0999"
    INDEX 01 22:24:26
  TRACK 1000 AUDIO
    TITLE "LR_black_phrase_07_1000"
    INDEX 01 22:24:49
  TRACK 1001 AUDIO
    TITLE "LR_black_phrase_07_1001"
    INDEX 01 22:27:05
